<svg width="48" height="43" viewBox="0 0 48 43" fill="none" xmlns="http://www.w3.org/2000/svg">
<path d="M46.8019 34.9159H43.8586V13.7244C43.8586 11.149 42.0191 8.94153 39.5909 8.42646V9.97168C41.2097 10.4868 42.387 12.032 42.387 13.7979V34.9895H30.3196C30.0988 34.9895 29.9517 35.0631 29.8045 35.2103C28.3329 36.6819 27.9649 37.0498 27.6706 37.3441H20.3124L18.1786 35.2103C18.0314 35.0631 17.8842 34.9895 17.6635 34.9895H5.59605V13.7244C5.59605 11.5169 7.36201 9.75093 9.56947 9.75093H16.7805V8.2793H9.56947C6.55261 8.2793 4.12441 10.7075 4.12441 13.7244V34.9159H1.18113C0.813222 34.9159 0.445312 35.2103 0.445312 35.6518V38.3007C0.445312 38.5215 0.518894 38.7422 0.73964 38.8894L4.86023 42.2741C5.00739 42.3477 5.15455 42.4213 5.30172 42.4213H42.6813C42.9021 42.4213 43.0492 42.3477 43.1964 42.2006C43.9322 41.4647 44.5209 41.0232 45.1831 40.5818C45.8453 40.1403 46.5076 39.6988 47.317 38.8158C47.4641 38.6686 47.5377 38.5215 47.5377 38.3007V35.6518C47.5377 35.2103 47.2434 34.9159 46.8019 34.9159Z" fill="white"/>
<path d="M8.25 27.41V31.1626C8.25 31.6041 8.54433 31.8985 8.98582 31.8985H22.8192C23.2607 31.8985 23.555 31.6041 23.555 31.1626V27.41C23.555 25.9383 22.5985 24.6138 21.2004 24.0252C20.1703 23.5837 19.1401 23.363 18.11 23.1422C17.7421 23.0686 17.3742 23.363 17.3006 23.7309C17.0798 24.8346 16.5648 25.8647 15.9025 26.7477C15.1667 25.8647 14.7252 24.8346 14.5045 23.7309C14.4309 23.363 14.063 23.0686 13.6951 23.1422C12.6649 23.2894 11.6348 23.5837 10.6046 23.9516C9.20656 24.5403 8.25 25.9383 8.25 27.41Z" fill="white"/>
<path d="M19.801 17.7696C19.801 15.6357 18.035 13.9434 15.9747 13.9434C13.9144 13.9434 12.1484 15.6357 12.1484 17.7696C12.1484 19.9035 13.8408 22.3317 15.9747 22.3317C18.1086 22.3317 19.801 19.9035 19.801 17.7696Z" fill="white"/>
<path d="M38.9964 29.6914H28.0327C27.5912 29.6914 27.2969 29.9857 27.2969 30.4272C27.2969 30.8687 27.5912 31.163 28.0327 31.163H38.9964C39.4379 31.163 39.7322 30.8687 39.7322 30.4272C39.7322 29.9857 39.3643 29.6914 38.9964 29.6914Z" fill="white"/>
<path d="M38.9964 25.7188H28.0327C27.5912 25.7188 27.2969 26.0131 27.2969 26.4546C27.2969 26.8961 27.5912 27.1904 28.0327 27.1904H38.9964C39.4379 27.1904 39.7322 26.8961 39.7322 26.4546C39.7322 26.0131 39.3643 25.7188 38.9964 25.7188Z" fill="white"/>
<path d="M27.2969 22.48C27.2969 22.9215 27.5912 23.2158 28.0327 23.2158H38.9964C39.4379 23.2158 39.7322 22.9215 39.7322 22.48C39.7322 22.0385 39.4379 21.7441 38.9964 21.7441H28.0327C27.5912 21.7441 27.2969 22.0385 27.2969 22.48Z" fill="white"/>
<path d="M18.992 12.6938H29.0727V15.7107C29.0727 16.005 29.2199 16.2993 29.5142 16.3729C29.8086 16.5201 30.1029 16.4465 30.3236 16.2258L34.2971 12.6203H37.4611C37.9026 12.6203 38.1969 12.2523 38.1969 11.8844V0.847147C38.1969 0.479238 37.9026 0.111328 37.4611 0.111328H19.0656C18.6977 0.111328 18.3298 0.479238 18.3298 0.847147V11.8844C18.2562 12.3995 18.6241 12.6938 18.992 12.6938ZM29.0727 8.72041H27.3804C26.9389 8.72041 26.6445 8.42608 26.6445 7.98459C26.6445 7.5431 26.9389 7.24877 27.3804 7.24877H29.0727C29.5142 7.24877 29.8086 7.5431 29.8086 7.98459C29.8086 8.3525 29.4407 8.72041 29.0727 8.72041ZM34.0763 8.72041H32.3839C31.9424 8.72041 31.6481 8.42608 31.6481 7.98459C31.6481 7.5431 31.9424 7.24877 32.3839 7.24877H34.0763C34.5178 7.24877 34.8121 7.5431 34.8121 7.98459C34.8121 8.3525 34.5178 8.72041 34.0763 8.72041ZM22.3032 3.56968H34.0763C34.5178 3.56968 34.8121 3.86401 34.8121 4.3055C34.8121 4.74699 34.5178 5.04132 34.0763 5.04132H22.3032C21.8617 5.04132 21.5674 4.74699 21.5674 4.3055C21.5674 3.86401 21.9353 3.56968 22.3032 3.56968ZM22.3032 7.24877H23.9956C24.4371 7.24877 24.7314 7.5431 24.7314 7.98459C24.7314 8.42608 24.4371 8.72041 23.9956 8.72041H22.3032C21.8617 8.72041 21.5674 8.42608 21.5674 7.98459C21.5674 7.5431 21.9353 7.24877 22.3032 7.24877Z" fill="white"/>
</svg>
