<svg width="34" height="42" viewBox="0 0 34 42" fill="none" xmlns="http://www.w3.org/2000/svg">
<path d="M32.5919 26.9535V21.1935C32.5919 20.4169 32.0031 19.785 31.2793 19.785H22.0201C21.4243 19.785 20.9207 20.2136 20.7611 20.7984C20.3285 20.6008 19.8796 20.4359 19.4192 20.3048C20.629 19.4228 21.4171 17.9961 21.4171 16.3882C21.4171 13.7148 19.242 11.5398 16.5686 11.5398C13.8951 11.5398 11.7224 13.7148 11.7224 16.3882C11.7224 18.0087 12.5227 19.4449 13.748 20.3253C13.0636 20.525 12.4018 20.7971 11.7813 21.1445C10.2408 22.0067 9.0783 23.2255 8.33802 24.7166H1.09905C0.923339 24.7166 0.754894 24.7865 0.63073 24.9109C0.506647 25.0353 0.437089 25.2039 0.437502 25.3797C0.447002 29.6827 2.12996 33.727 5.17649 36.7674C8.22377 39.8086 12.2728 41.4836 16.5779 41.4836C20.0745 41.4836 23.4018 40.3836 26.2001 38.3024C28.8565 36.3267 30.8102 33.6457 31.8654 30.5336H32.1505C32.9298 30.5336 33.5637 29.9007 33.5637 29.1227V28.2445C33.5637 27.633 33.1525 27.1165 32.5919 26.9535H32.5919ZM27.501 24.2987C27.501 24.7681 27.1191 25.1499 26.6497 25.1499C26.1803 25.1499 25.7985 24.7681 25.7985 24.2987C25.7985 23.8293 26.1803 23.4475 26.6497 23.4475C27.1191 23.4475 27.501 23.8293 27.501 24.2987ZM1.77671 26.0397H7.73348C7.73546 26.123 7.73785 26.2077 7.74058 26.2939C7.51282 27.13 7.39502 28.0277 7.39477 28.9772C7.39477 29.1527 7.46441 29.3209 7.58849 29.445C7.70803 29.5647 7.86871 29.6331 8.03724 29.6379C8.22914 30.9312 8.50358 32.1507 8.84931 33.2797C7.66144 33.7707 6.51967 34.3778 5.43697 35.0968C3.29304 32.6515 1.93789 29.4983 1.77671 26.0397ZM6.36841 36.0679C7.29572 35.469 8.26838 34.9573 9.2769 34.535C10.0652 36.6268 11.1141 38.3385 12.3332 39.5395C10.0724 38.8615 8.03633 37.6564 6.36841 36.0679ZM15.9164 40.1002C13.758 39.7103 11.7886 37.4368 10.518 34.066C12.2429 33.4847 14.057 33.1562 15.9164 33.0931V40.1002ZM15.9164 31.7695C13.9108 31.8332 11.9539 32.1853 10.0934 32.8125C9.79421 31.8241 9.55167 30.7609 9.37603 29.6389H15.9164V31.7695ZM8.74051 28.3158C8.9239 25.6571 10.2168 23.5364 12.4274 22.299C14.9397 20.8927 18.2187 20.8853 20.7076 22.2499V26.9534C20.147 27.1164 19.7357 27.633 19.7357 28.2444V28.3158H8.74051ZM21.1466 30.5335H23.6238C23.4695 31.3305 23.2815 32.0926 23.0636 32.814C21.2019 32.1859 19.2445 31.8333 17.2395 31.7695V29.6389H19.8349C20.0416 30.162 20.5509 30.5335 21.1466 30.5335H21.1466ZM17.2395 40.1001V33.0931C19.0987 33.1563 20.9134 33.4854 22.6398 34.0677C21.3661 37.4525 19.3941 39.7122 17.2395 40.1001ZM20.8273 39.5455C22.0446 38.3479 23.0923 36.638 23.881 34.5372C24.8959 34.9624 25.8748 35.4781 26.8081 36.082C25.1283 37.6839 23.0826 38.8764 20.8273 39.5456V39.5455ZM27.7379 35.1103C26.6494 34.3863 25.5013 33.7752 24.3074 33.2813C24.5709 32.4175 24.7935 31.4991 24.9703 30.5334H30.4605C29.8222 32.2461 28.8926 33.788 27.7379 35.1103ZM32.2407 29.1225C32.2407 29.1701 32.1994 29.2103 32.1505 29.2103H21.1466C21.0999 29.2103 21.0589 29.1693 21.0589 29.1225V28.2444C21.0589 28.2344 21.0703 28.2221 21.0835 28.2221H32.2161C32.2294 28.2221 32.2408 28.2343 32.2408 28.2444V29.1225H32.2407ZM0.704501 16.372V15.1169C0.704501 14.21 1.36993 13.4945 2.44099 13.2495L4.79847 12.7147C5.02193 11.9963 5.31057 11.2996 5.65985 10.6349L4.3726 8.58901C3.78739 7.65946 3.82266 6.683 4.46472 6.0407L6.23747 4.26803C6.87961 3.62589 7.85624 3.59062 8.78594 4.176L10.8337 5.46316C11.5021 5.1114 12.1984 4.8226 12.9118 4.60103L13.4484 2.2448C13.6935 1.17316 14.4089 0.507812 15.3158 0.507812H17.8237C18.7307 0.507812 19.4463 1.17325 19.691 2.24438L20.2278 4.60112C20.9414 4.82268 21.6374 5.1114 22.3057 5.46316L24.3515 4.17592C25.2809 3.59086 26.2575 3.62589 26.8998 4.26803L28.6744 6.04045C29.317 6.68292 29.3523 7.65946 28.7668 8.58925L27.4775 10.6373C27.8299 11.3067 28.1187 12.0028 28.3395 12.7148L30.6974 13.2493C31.7696 13.4945 32.4351 14.21 32.4351 15.1168V16.3719C32.4351 16.7373 32.1389 17.0334 31.7735 17.0334H23.8795C23.5141 17.0334 23.218 16.7373 23.218 16.3719C23.218 12.7054 20.2351 9.7226 16.5686 9.7226C12.902 9.7226 9.91929 12.7054 9.91929 16.3719C9.91929 16.7373 9.62313 17.0334 9.25774 17.0334H1.36597C1.00058 17.0334 0.704419 16.7373 0.704419 16.3719L0.704501 16.372Z" fill="white"/>
</svg>
