<svg width="42" height="42" viewBox="0 0 42 42" fill="none" xmlns="http://www.w3.org/2000/svg">
<path d="M6.84889 8.04933C7.50913 8.04933 8.04933 7.51163 8.04933 6.84889C8.04933 6.18645 7.50913 5.64844 6.84889 5.64844C6.18864 5.64844 5.64844 6.18645 5.64844 6.84889C5.64844 7.51163 6.18864 8.04933 6.84889 8.04933Z" fill="white"/>
<path d="M11.9973 8.04933C12.6576 8.04933 13.1978 7.51163 13.1978 6.84889C13.1978 6.18645 12.6576 5.64844 11.9973 5.64844C11.3371 5.64844 10.7969 6.18645 10.7969 6.84889C10.7969 7.51163 11.3374 8.04933 11.9973 8.04933Z" fill="white"/>
<path d="M17.1379 8.04933C17.7982 8.04933 18.3384 7.51163 18.3384 6.84889C18.3384 6.18645 17.7982 5.64844 17.1379 5.64844C16.4777 5.64844 15.9375 6.18645 15.9375 6.84889C15.9375 7.51163 16.4777 8.04933 17.1379 8.04933Z" fill="white"/>
<path d="M35.1395 0.505859H6.85143C3.35356 0.505859 0.507812 3.35161 0.507812 6.84947V35.1375C0.507812 38.6354 3.35356 41.4811 6.85143 41.4811H35.1395C38.6373 41.4811 41.4831 38.6354 41.4831 35.1375V6.84947C41.4831 3.35161 38.6373 0.505859 35.1395 0.505859ZM6.85143 2.90675H35.1395C37.3134 2.90675 39.0822 4.67554 39.0822 6.84947V10.7925H2.90871V6.84947C2.90871 4.67554 4.67749 2.90675 6.85143 2.90675ZM35.1395 39.0802H6.85143C4.67749 39.0802 2.90871 37.3115 2.90871 35.1375V13.1931H39.0822V35.1375C39.0822 37.3115 37.3134 39.0802 35.1395 39.0802Z" fill="white"/>
<path d="M12.8409 17.5743C12.372 17.1054 11.612 17.1054 11.1431 17.5743L5.9999 22.7175C5.53128 23.1861 5.53128 23.9464 5.9999 24.415L11.1431 29.5585C11.3775 29.793 11.6848 29.9102 11.9918 29.9102C12.2991 29.9102 12.6064 29.793 12.8409 29.5585C13.3095 29.0896 13.3095 28.3296 12.8409 27.8607L8.54647 23.5663L12.8409 19.2719C13.3095 18.8029 13.3095 18.043 12.8409 17.5743Z" fill="white"/>
<path d="M28.2758 17.5743C27.8072 17.1054 27.0472 17.1054 26.5783 17.5743C26.1093 18.043 26.1093 18.8029 26.5783 19.2719L30.8727 23.5663L26.5783 27.8607C26.1093 28.3296 26.1093 29.0896 26.5783 29.5585C26.8127 29.793 27.1197 29.9102 27.427 29.9102C27.7343 29.9102 28.0416 29.793 28.2758 29.5585L33.4189 24.415C33.8879 23.9464 33.8879 23.1864 33.4189 22.7175L28.2758 17.5743Z" fill="white"/>
<path d="M22.8182 17.3496C22.2255 17.0532 21.5042 17.2936 21.2076 17.8863L16.0644 28.173C15.768 28.766 16.0084 29.4872 16.6012 29.7836C16.7734 29.8699 16.9566 29.9105 17.137 29.9105C17.5775 29.9105 18.0014 29.6673 18.2118 29.2468L23.3549 18.9602C23.6516 18.3671 23.4112 17.6459 22.8182 17.3496Z" fill="white"/>
</svg>
