<svg width="34" height="43" viewBox="0 0 34 43" fill="none" xmlns="http://www.w3.org/2000/svg">
<path d="M4.33137 0.513672C2.47049 0.513672 0.9375 2.04629 0.9375 3.90717V38.732C0.9375 40.5928 2.47049 42.1259 4.33137 42.1259H29.666C31.5269 42.1259 33.0599 40.5929 33.0599 38.732V3.90717C33.0599 2.04629 31.5269 0.513672 29.666 0.513672H4.33137ZM4.33137 2.74275H11.2458L13.1221 5.92001C13.3226 6.2595 13.6875 6.46782 14.0818 6.46786H19.9152C20.3095 6.46782 20.6744 6.2595 20.8749 5.92001L22.7511 2.74275H29.6656C30.33 2.74275 30.8301 3.24277 30.8301 3.90717V34.4723H3.16677V3.90717C3.16677 3.24275 3.66698 2.74275 4.33137 2.74275Z" fill="white"/>
<path d="M11.9333 16.1184C11.638 16.1325 11.3604 16.2633 11.1616 16.482L7.44612 20.569C7.2596 20.7742 7.15625 21.0415 7.15625 21.3188C7.15625 21.5961 7.2596 21.8634 7.44612 22.0686L11.1616 26.1556C11.3604 26.3743 11.638 26.5051 11.9333 26.5191C12.2286 26.5332 12.5173 26.4294 12.7361 26.2305C12.9548 26.0317 13.0856 25.7541 13.0996 25.4588C13.1137 25.1635 13.0099 24.8747 12.811 24.656L9.77716 21.3188L12.811 17.9816C13.0099 17.7629 13.1137 17.4741 13.0996 17.1788C13.0856 16.8835 12.9548 16.6059 12.7361 16.4071C12.5173 16.2082 12.2286 16.1044 11.9333 16.1184Z" fill="white"/>
<path d="M22.066 16.1184C21.7707 16.1044 21.482 16.2082 21.2632 16.4071C21.0445 16.6059 20.9137 16.8835 20.8997 17.1788C20.8856 17.4741 20.9895 17.7629 21.1883 17.9816L24.2222 21.3188L21.1883 24.656C20.9895 24.8747 20.8856 25.1635 20.8997 25.4588C20.9137 25.7541 21.0445 26.0317 21.2632 26.2305C21.482 26.4294 21.7707 26.5332 22.066 26.5191C22.3613 26.5051 22.6389 26.3743 22.8378 26.1556L26.5532 22.0686C26.7397 21.8634 26.8431 21.5961 26.8431 21.3188C26.8431 21.0415 26.7397 20.7742 26.5532 20.569L22.8378 16.482C22.6389 16.2633 22.3613 16.1325 22.066 16.1184Z" fill="white"/>
<path d="M18.7252 13.7114C18.437 13.6458 18.1345 13.6973 17.8843 13.8547C17.634 14.012 17.4566 14.2623 17.3909 14.5505L14.4185 27.5917C14.386 27.7344 14.3819 27.8821 14.4064 28.0264C14.431 28.1707 14.4837 28.3088 14.5616 28.4327C14.6396 28.5566 14.7411 28.664 14.8605 28.7487C14.9799 28.8333 15.1148 28.8937 15.2576 28.9262C15.5458 28.9918 15.8482 28.9403 16.0985 28.783C16.3487 28.6256 16.5262 28.3753 16.5919 28.0871L19.5642 15.0459C19.5968 14.9032 19.6009 14.7555 19.5763 14.6112C19.5517 14.4669 19.499 14.3288 19.4211 14.2049C19.3432 14.081 19.2416 13.9736 19.1222 13.889C19.0028 13.8043 18.8679 13.744 18.7252 13.7114Z" fill="white"/>
</svg>
