<svg width="46" height="44" viewBox="0 0 46 44" fill="none" xmlns="http://www.w3.org/2000/svg">
<path d="M44.9236 36.2562H44.3892V15.1475C44.3892 12.5646 42.2859 10.4614 39.703 10.4614H32.0433C32.0364 9.63944 31.8035 8.81014 31.317 8.08387C30.1524 6.33694 27.8914 5.69999 26.0073 6.50153L23.3902 2.57545C22.884 1.81654 21.7357 1.96684 21.4307 2.79491C20.4647 5.33669 19.0807 7.83063 17.1556 10.4614H6.9404C4.35747 10.4614 2.24728 12.5646 2.24728 15.1475V36.2562H1.07575C0.698897 36.2562 0.390625 36.5646 0.390625 36.9413V40.7165C0.390625 42.347 1.71976 43.6761 3.35032 43.6761H42.649C44.2864 43.6761 45.6087 42.347 45.6087 40.7165V36.9413C45.6087 36.5646 45.3073 36.2562 44.9236 36.2562ZM3.61753 15.1475C3.61753 13.3183 5.11109 11.8316 6.9404 11.8316H16.1142C15.5318 12.5783 14.8947 13.339 14.2233 14.1198C13.7642 13.702 13.0585 13.6405 12.5241 14.0034L6.98836 17.6896C6.35116 18.1075 6.17988 18.9776 6.60465 19.6145L6.71429 19.7791C5.20702 21.245 4.92613 23.5884 6.1251 25.3973C7.34826 27.2268 9.65209 27.8356 11.5375 27.007L11.6472 27.1716C12.0145 27.7542 12.8373 28.0247 13.5792 27.5691L14.0109 27.2814L20.2934 32.2485C22.0171 33.6108 24.5241 32.4266 24.6097 30.2684C24.6439 29.405 24.274 28.6101 23.6026 28.0759L18.6697 24.1709L19.1081 23.8761C19.5192 23.6022 19.7316 23.1499 19.7248 22.6909C23.719 21.3411 28.3847 20.1903 33.1189 20.3408C34.0345 20.3565 34.5719 19.3554 34.0781 18.6143L30.7416 13.606C31.2554 13.1059 31.6185 12.4964 31.8309 11.8316H39.703C41.5322 11.8316 43.0189 13.3183 43.0189 15.1475V36.2562C29.3062 36.2562 17.3219 36.2562 3.61753 36.2562L3.61753 15.1475ZM22.5269 3.74732C24.5736 6.81973 28.1842 12.376 32.6599 18.9568C27.8435 18.8886 23.1435 20.0735 19.1424 21.4304L15.0454 15.271C18.0702 11.8265 20.8256 8.00638 22.5269 3.74732ZM10.7565 25.8492C9.48217 26.2671 8.04343 25.8081 7.26238 24.6365C6.48819 23.465 6.61151 21.9646 7.49534 20.9507L10.7565 25.8492ZM28.7889 38.8254C28.7889 39.2436 28.4532 39.5791 28.0422 39.5791H17.9571C17.5392 39.5791 17.2035 39.2436 17.2035 38.8254V37.6264H28.7889V38.8254Z" fill="white"/>
<path d="M30.4159 34.8847H32.4165C32.6288 34.8847 32.7933 34.7134 32.7933 34.508V28.2322C32.7933 28.0267 32.6288 27.8555 32.4165 27.8555H30.4159C30.2103 27.8555 30.0391 28.0267 30.0391 28.2322V34.508C30.0391 34.7134 30.2103 34.8847 30.4159 34.8847Z" fill="white"/>
<path d="M38.0965 34.8857H40.1108C40.3094 34.8857 40.4876 34.7145 40.4876 34.5091V26.5137C40.4876 26.3013 40.3094 26.1367 40.1108 26.1367H38.0965C37.8978 26.1367 37.7266 26.3013 37.7266 26.5137V34.5091C37.7266 34.7145 37.8978 34.8857 38.0965 34.8857Z" fill="white"/>
<path d="M26.369 34.887H28.5751C28.7806 34.887 28.9519 34.7157 28.9519 34.5103V31.1462C28.9519 30.9338 28.7806 30.7695 28.5751 30.7695H26.369C26.1566 30.7695 25.9922 30.9338 25.9922 31.1462V34.5103C25.9922 34.7157 26.1566 34.887 26.369 34.887Z" fill="white"/>
<path d="M34.2596 34.8847H36.2602C36.4726 34.8847 36.637 34.7135 36.637 34.5081V29.4861C36.637 29.2736 36.4726 29.1094 36.2602 29.1094H34.2596C34.0541 29.1094 33.8828 29.2736 33.8828 29.4861V34.5081C33.8828 34.7135 34.0541 34.8847 34.2596 34.8847Z" fill="white"/>
<path d="M32.2876 6.38708C32.5044 6.69756 32.9324 6.7727 33.2414 6.55635L35.8219 4.7549C36.1324 4.53845 36.2083 4.11092 35.9915 3.80081C35.7751 3.49036 35.3482 3.41476 35.0378 3.6312L32.4572 5.43299C32.1468 5.64944 32.0708 6.07664 32.2876 6.38708Z" fill="white"/>
<path d="M31.069 4.73577C31.3758 4.73577 31.6551 4.52836 31.733 4.21724L32.4974 1.1643C32.5891 0.796983 32.3663 0.424983 31.999 0.333321C31.6337 0.24099 31.26 0.464457 31.168 0.831105L30.4036 3.88405C30.2952 4.31828 30.6241 4.73577 31.069 4.73577Z" fill="white"/>
<path d="M33.5261 8.18016C33.4933 8.55717 33.7723 8.88937 34.149 8.92215L37.2845 9.19513C37.6493 9.23101 37.993 8.95685 38.0265 8.57223C38.0593 8.19521 37.7803 7.86302 37.4036 7.83024L34.268 7.55726C33.8843 7.52481 33.5588 7.80347 33.5261 8.18016Z" fill="white"/>
</svg>
