<svg width="42" height="38" viewBox="0 0 42 38" fill="none" xmlns="http://www.w3.org/2000/svg">
<path fill-rule="evenodd" clip-rule="evenodd" d="M0.507812 31.4387V7.02709C0.507812 3.41593 3.43546 0.488281 7.04663 0.488281H34.9456C38.5567 0.488281 41.4844 3.41593 41.4844 7.02709V31.4387C41.4844 35.0498 38.5567 37.9775 34.9456 37.9775H7.04663C5.31166 37.9775 3.64993 37.2887 2.42238 36.0629C1.19657 34.8354 0.507812 33.1736 0.507812 31.4387ZM3.12334 13.5659V31.4387C3.12334 32.4796 3.53659 33.477 4.27242 34.2129C5.00826 34.9487 6.00565 35.362 7.04663 35.362H34.9456C37.113 35.362 38.8688 33.6061 38.8688 31.4387V13.5659H3.12334ZM19.2524 5.28341C18.2899 5.28341 17.5087 6.06458 17.5087 7.02709C17.5087 7.98961 18.2899 8.77078 19.2524 8.77078C20.2149 8.77078 20.9961 7.98961 20.9961 7.02709C20.9961 6.06458 20.2149 5.28341 19.2524 5.28341ZM14.0214 5.28341C13.0588 5.28341 12.2777 6.06458 12.2777 7.02709C12.2777 7.98961 13.0588 8.77078 14.0214 8.77078C14.9839 8.77078 15.765 7.98961 15.765 7.02709C15.765 6.06458 14.9839 5.28341 14.0214 5.28341ZM8.79031 5.28341C7.8278 5.28341 7.04663 6.06458 7.04663 7.02709C7.04663 7.98961 7.8278 8.77078 8.79031 8.77078C9.75282 8.77078 10.534 7.98961 10.534 7.02709C10.534 6.06458 9.75282 5.28341 8.79031 5.28341Z" fill="white"/>
<path fill-rule="evenodd" clip-rule="evenodd" d="M15.328 26.6427C15.79 26.6427 16.2347 26.4596 16.5607 26.1318C16.8886 25.8057 17.0716 25.3611 17.0716 24.899V20.9757C17.0716 20.2538 17.6575 19.668 18.3794 19.668C19.1013 19.668 19.6872 20.2538 19.6872 20.9757V24.899C19.6872 26.0551 19.2286 27.1641 18.4108 27.9818C17.593 28.7996 16.484 29.2582 15.328 29.2582C14.1719 29.2582 13.0629 28.7996 12.2451 27.9818C11.4273 27.1641 10.9688 26.0551 10.9688 24.899V20.9757C10.9688 20.2538 11.5546 19.668 12.2765 19.668C12.9984 19.668 13.5843 20.2538 13.5843 20.9757V24.899C13.5843 25.3611 13.7674 25.8057 14.0952 26.1318C14.4212 26.4596 14.8659 26.6427 15.328 26.6427Z" fill="white"/>
<path fill-rule="evenodd" clip-rule="evenodd" d="M21.8207 21.8994C21.3098 21.3903 21.3098 20.5603 21.8207 20.0511C22.3298 19.5402 23.1598 19.5402 23.669 20.0511L30.6437 27.0259C31.1546 27.535 31.1546 28.365 30.6437 28.8742C30.1346 29.3851 29.3046 29.3851 28.7954 28.8742L21.8207 21.8994Z" fill="white"/>
<path fill-rule="evenodd" clip-rule="evenodd" d="M28.7954 20.0511C29.3046 19.5402 30.1346 19.5402 30.6437 20.0511C31.1546 20.5603 31.1546 21.3903 30.6437 21.8994L23.669 28.8742C23.1598 29.3851 22.3298 29.3851 21.8207 28.8742C21.3098 28.365 21.3098 27.535 21.8207 27.0259L28.7954 20.0511Z" fill="white"/>
</svg>
