<svg width="36" height="45" viewBox="0 0 36 45" fill="none" xmlns="http://www.w3.org/2000/svg">
<path d="M5.3218 7.88469C7.31927 5.12211 9.56756 3.66152 11.8231 3.66152C14.0786 3.66152 16.3269 5.12211 18.3244 7.88469C18.5679 8.22192 18.8995 8.39208 19.2318 8.39208C19.532 8.39208 19.8323 8.25349 20.0698 7.974C20.5702 7.38268 20.6016 6.3856 20.1385 5.74577C17.6612 2.31873 14.7858 0.507812 11.8231 0.507812C8.86034 0.507812 5.98501 2.31873 3.50702 5.74577C3.04458 6.3856 3.07593 7.38268 3.57695 7.974C4.07919 8.56609 4.85936 8.52451 5.3218 7.88469Z" fill="white"/>
<path d="M16.762 11.5457C17.061 11.5457 17.3619 11.4071 17.5988 11.1276C18.0999 10.5363 18.1312 9.53921 17.6688 8.89938C15.9372 6.50408 13.9156 5.23828 11.8223 5.23828C9.72894 5.23828 7.70735 6.50408 5.97577 8.89938C5.51333 9.53921 5.54468 10.5363 6.0457 11.1276C6.54854 11.7189 7.32872 11.6789 7.79055 11.0383C10.2939 7.57661 13.3507 7.57661 15.854 11.0383C16.0976 11.3755 16.4292 11.5457 16.762 11.5457Z" fill="white"/>
<path d="M8.44452 12.0532C7.98208 12.693 8.01343 13.6909 8.51445 14.2814C9.01669 14.8735 9.79807 14.8304 10.2593 14.1921C10.612 13.7039 11.1691 13.1226 11.8215 13.1226C12.4738 13.1226 13.0309 13.7039 13.3836 14.1921C13.6272 14.5293 13.9588 14.6995 14.2916 14.6995C14.5907 14.6995 14.8909 14.5609 15.1285 14.2814C15.6295 13.6909 15.6609 12.693 15.1984 12.0532C13.2269 9.32602 10.4161 9.32602 8.44452 12.0532Z" fill="white"/>
<path d="M32.8161 30.4668C31.9064 30.4668 31.1186 31.1056 30.6901 32.0437H21.7031V35.1974H30.6901C31.1186 36.1354 31.9064 36.7742 32.8161 36.7742C34.1775 36.7742 35.2857 35.3598 35.2857 33.6205C35.2857 31.8812 34.1775 30.4668 32.8161 30.4668Z" fill="white"/>
<path d="M32.8161 38.3522C31.9064 38.3522 31.1186 38.991 30.6901 39.9291H28.3883L26.2805 37.2374C26.049 36.9417 25.7355 36.7754 25.4075 36.7754H21.7031V39.9291H24.8962L27.004 42.6208C27.2355 42.9165 27.549 43.0828 27.877 43.0828H30.6901C31.1186 44.0209 31.9064 44.6597 32.8161 44.6597C34.1775 44.6597 35.2857 43.2453 35.2857 41.506C35.2857 39.7666 34.1775 38.3522 32.8161 38.3522Z" fill="white"/>
<path d="M21.7031 30.4683H25.4075C25.7355 30.4683 26.049 30.3019 26.2805 30.0063L28.3883 27.3145H30.6901C31.1186 28.2526 31.9064 28.8914 32.8161 28.8914C34.1775 28.8914 35.2857 27.477 35.2857 25.7377C35.2857 23.9984 34.1775 22.584 32.8161 22.584C31.9064 22.584 31.1186 23.2228 30.6901 24.1608H27.877C27.549 24.1608 27.2355 24.3271 27.004 24.6228L24.8962 27.3145H21.7031V30.4683Z" fill="white"/>
<path d="M22.937 24.16C22.937 23.5132 22.6322 22.9573 22.1968 22.714L12.4652 14.9383C12.0653 14.6195 11.5582 14.6195 11.1583 14.9383L1.29121 22.8226C0.82447 23.196 0.607061 23.9182 0.758826 24.595C0.910591 25.271 1.39419 25.7368 1.94464 25.7368H21.6789C21.6879 25.7353 21.6951 25.736 21.7036 25.7368C22.3847 25.7368 22.937 25.0308 22.937 24.16Z" fill="white"/>
<path d="M3.14844 39.9293C3.14844 40.8002 3.70131 41.5061 4.38322 41.5061H5.618V32.045C5.618 31.1741 6.17087 30.4682 6.85277 30.4682H9.32233C10.0043 30.4682 10.5571 31.1741 10.5571 32.045V41.5061H19.2006C19.8825 41.5061 20.4353 40.8002 20.4353 39.9293V27.3145H3.14844V39.9293ZM13.0267 32.045C13.0267 31.1741 13.5795 30.4682 14.2614 30.4682H16.731C17.413 30.4682 17.9658 31.1741 17.9658 32.045V35.1987C17.9658 36.0696 17.413 36.7756 16.731 36.7756H14.2614C13.5795 36.7756 13.0267 36.0696 13.0267 35.1987V32.045Z" fill="white"/>
</svg>
