<svg width="410" height="734" viewBox="0 0 410 734" fill="none" xmlns="http://www.w3.org/2000/svg">
<path d="M401.482 467.784C419.667 552.768 409.698 651.653 328.825 704.38C247.953 757.107 127.366 737.18 66.1832 660.984C10.3615 591.47 2.05456 487.347 -68.8749 433.317C-98.8177 410.509 -136.085 400.107 -169.353 382.566C-202.785 364.937 -239.984 329.803 -237.438 288.711C-233.329 222.487 -146.767 180.238 -98.0714 148.95C-27.2603 103.453 47.796 64.9486 123.017 27.3753C277.616 -49.8488 395.174 48.4855 406.857 213.938C413.02 301.239 354.629 295.512 401.491 467.786L401.482 467.784Z" fill="url(#paint0_linear_1727_9469)"/>
<defs>
<linearGradient id="paint0_linear_1727_9469" x1="399.482" y1="367.102" x2="-483.472" y2="583.541" gradientUnits="userSpaceOnUse">
<stop stop-color="#FF00A8" stop-opacity="0"/>
<stop offset="1" stop-color="#FF006B" stop-opacity="0.6"/>
</linearGradient>
</defs>
</svg>
