<svg width="546" height="677" viewBox="0 0 546 677" fill="none" xmlns="http://www.w3.org/2000/svg">
<path d="M456.714 672.933C537.96 681.058 629.163 679.177 677.461 613.337C725.759 547.496 731.047 452.898 690.382 382.065C649.626 311.068 570.244 267.143 535.169 193.174C518.678 158.397 513.092 118.948 494.272 85.3772C451.058 8.31653 345.294 -16.8382 261.503 11.0638C177.712 38.9658 113.874 108.082 66.3503 182.536C25.5341 246.484 -6.90591 320.627 1.36353 396.056C11.888 492.043 87.7764 570.85 175.112 611.995C262.455 653.137 360.666 663.319 456.719 672.922L456.714 672.933Z" fill="url(#paint0_linear_1727_9470)"/>
<defs>
<linearGradient id="paint0_linear_1727_9470" x1="139.345" y1="258.046" x2="723.705" y2="807.099" gradientUnits="userSpaceOnUse">
<stop stop-color="#FF9700" stop-opacity="0"/>
<stop offset="0.97" stop-color="#FF4300" stop-opacity="0.6"/>
</linearGradient>
</defs>
</svg>
