<svg width="1440" height="6497" viewBox="0 0 1440 6497" fill="none" xmlns="http://www.w3.org/2000/svg">
<g clip-path="url(#clip0_1930_16392)">
<rect width="1440" height="6497" fill="#020512"/>
<path d="M1440 0H0V960H1440V0Z" fill="url(#paint0_radial_1930_16392)"/>
<g filter="url(#filter0_f_1930_16392)">
<rect width="1881" height="196" transform="matrix(1 0 0 -1 -220 1092)" fill="url(#paint1_linear_1930_16392)"/>
</g>
<mask id="mask0_1930_16392" style="mask-type:alpha" maskUnits="userSpaceOnUse" x="1030" y="5037" width="271" height="388">
<rect x="1030" y="5037" width="271" height="388" fill="white"/>
</mask>
<g mask="url(#mask0_1930_16392)">
<path d="M1248.24 5464.71L1099.88 5464.76C1089.4 5464.77 1080.92 5473.26 1080.92 5483.73L1081.37 5551.1C1081.37 5561.57 1089.86 5570.06 1100.34 5570.05L1210.78 5570L1213.92 5581.25L1227.23 5570L1248.69 5570C1259.17 5569.99 1267.66 5561.5 1267.65 5551.03L1267.21 5483.66C1267.2 5473.19 1258.71 5464.7 1248.24 5464.71L1248.24 5464.71Z" fill="#1F4168"/>
<path d="M1244.17 5459.53L1095.81 5459.59C1085.34 5459.59 1076.85 5468.08 1076.86 5478.56L1077.3 5545.92C1077.31 5556.39 1085.8 5564.88 1096.27 5564.88L1212.58 5564.88L1215.53 5575.83L1228.46 5564.82L1244.63 5564.82C1255.11 5564.81 1263.59 5556.32 1263.59 5545.85L1263.14 5478.48C1263.14 5468.01 1254.65 5459.52 1244.17 5459.53L1244.17 5459.53Z" fill="white"/>
<path d="M1244.18 5459.53L1221.91 5459.58L1199.64 5459.61L1155.1 5459.66L1110.57 5459.64L1099.43 5459.64L1096.65 5459.64C1095.72 5459.63 1094.79 5459.65 1093.87 5459.74C1092.95 5459.84 1092.04 5460 1091.14 5460.22C1090.25 5460.45 1089.36 5460.75 1088.51 5461.1C1085.09 5462.52 1082.11 5464.98 1080.05 5468.06C1079.53 5468.83 1079.08 5469.64 1078.68 5470.48C1078.28 5471.31 1077.96 5472.19 1077.68 5473.07C1077.4 5473.96 1077.21 5474.87 1077.07 5475.78C1076.93 5476.7 1076.87 5477.63 1076.86 5478.56C1076.87 5477.63 1076.92 5476.7 1077.06 5475.78C1077.2 5474.86 1077.39 5473.95 1077.66 5473.06C1077.93 5472.18 1078.25 5471.3 1078.65 5470.46C1079.05 5469.63 1079.5 5468.81 1080.01 5468.04C1082.06 5464.94 1085.04 5462.45 1088.47 5461.01C1089.33 5460.65 1090.22 5460.36 1091.12 5460.12C1092.02 5459.9 1092.94 5459.74 1093.86 5459.63C1094.79 5459.55 1095.72 5459.52 1096.65 5459.53L1099.43 5459.53L1110.57 5459.52L1155.1 5459.47L1199.64 5459.48L1221.91 5459.49L1244.18 5459.53L1244.18 5459.53Z" fill="#1F4168"/>
</g>
</g>
<defs>
<filter id="filter0_f_1930_16392" x="-320" y="796" width="2081" height="396" filterUnits="userSpaceOnUse" color-interpolation-filters="sRGB">
<feFlood flood-opacity="0" result="BackgroundImageFix"/>
<feBlend mode="normal" in="SourceGraphic" in2="BackgroundImageFix" result="shape"/>
<feGaussianBlur stdDeviation="50" result="effect1_foregroundBlur_1930_16392"/>
</filter>
<radialGradient id="paint0_radial_1930_16392" cx="0" cy="0" r="1" gradientUnits="userSpaceOnUse" gradientTransform="translate(1273.09 267.072) scale(938.88 938.88)">
<stop stop-color="#C65060"/>
<stop offset="1" stop-color="#613E5E"/>
</radialGradient>
<linearGradient id="paint1_linear_1930_16392" x1="939.866" y1="-9.24528" x2="939.866" y2="240.377" gradientUnits="userSpaceOnUse">
<stop stop-color="#040718"/>
<stop offset="1" stop-color="#02030D"/>
</linearGradient>
<clipPath id="clip0_1930_16392">
<rect width="1440" height="6497" fill="white"/>
</clipPath>
</defs>
</svg>
