<svg width="43" height="43" viewBox="0 0 43 43" fill="none" xmlns="http://www.w3.org/2000/svg">
<path d="M41.7403 29.4772H40.0606V25.5297C40.0606 23.4456 38.3652 21.7502 36.2813 21.7502C35.8353 21.7502 35.4073 21.8284 35.0098 21.9709C34.8643 20.0187 33.2307 18.4746 31.2422 18.4746C29.1583 18.4746 27.4629 20.1701 27.4629 22.2542V29.4772H15.5371V22.2542C15.5371 20.1701 13.8417 18.4746 11.7578 18.4746C9.76924 18.4746 8.13574 20.0187 7.99028 21.9709C7.5927 21.8284 7.1648 21.7502 6.71876 21.7502C4.63485 21.7502 2.93946 23.4456 2.93946 25.5297V29.4772H1.25977C0.564039 29.4772 0 30.0413 0 30.7371C0 31.4329 0.564039 31.9969 1.25977 31.9969H2.93946V35.9445C2.93946 38.0285 4.63485 39.724 6.71876 39.724C7.16471 39.724 7.5927 39.6458 7.99028 39.5033C8.13574 41.4554 9.76924 42.9996 11.7578 42.9996C13.8417 42.9996 15.5371 41.3041 15.5371 39.22V31.9969H27.4629V39.22C27.4629 41.3041 29.1583 42.9996 31.2422 42.9996C33.2308 42.9996 34.8643 41.4554 35.0098 39.5033C35.4073 39.6458 35.8352 39.724 36.2813 39.724C38.3652 39.724 40.0606 38.0285 40.0606 35.9445V31.9969H41.7403C42.436 31.9969 43 31.4329 43 30.7371C43 30.0413 42.436 29.4772 41.7403 29.4772ZM6.71876 37.2043C6.02412 37.2043 5.45899 36.6392 5.45899 35.9445V25.5297C5.45899 24.835 6.02412 24.2699 6.71876 24.2699C7.41339 24.2699 7.97852 24.835 7.97852 25.5297V35.9445C7.97852 36.6391 7.41339 37.2043 6.71876 37.2043ZM13.0176 39.22C13.0176 39.9147 12.4525 40.4799 11.7578 40.4799C11.0632 40.4799 10.4981 39.9147 10.4981 39.22V22.2542C10.4981 21.5594 11.0632 20.9943 11.7578 20.9943C12.4525 20.9943 13.0176 21.5594 13.0176 22.2542V39.22ZM32.502 39.22C32.502 39.9147 31.9368 40.4799 31.2422 40.4799C30.5476 40.4799 29.9824 39.9147 29.9824 39.22V22.2542C29.9824 21.5594 30.5476 20.9943 31.2422 20.9943C31.9368 20.9943 32.502 21.5594 32.502 22.2542V39.22ZM37.541 35.9445C37.541 36.6392 36.9759 37.2043 36.2813 37.2043C35.5866 37.2043 35.0215 36.6392 35.0215 35.9445V25.5297C35.0215 24.835 35.5866 24.2699 36.2813 24.2699C36.9759 24.2699 37.541 24.835 37.541 25.5297V35.9445Z" fill="#9E00FF" fill-opacity="0.2"/>
<path d="M20.6104 17.0037C20.8564 17.2497 21.1788 17.3727 21.5011 17.3727C21.8235 17.3727 22.146 17.2498 22.3919 17.0037L29.7201 9.67481C31.9299 7.46442 31.9297 3.86804 29.7197 1.65782C27.5096 -0.552649 23.9129 -0.552565 21.7028 1.65782L21.5011 1.85955L21.2995 1.65782C19.0894 -0.552649 15.4927 -0.552565 13.2826 1.65782C11.0726 3.86804 11.0725 7.46442 13.2822 9.67481L20.6104 17.0037ZM15.0641 3.43955C15.6782 2.82554 16.4844 2.51858 17.291 2.51858C18.0974 2.51858 18.904 2.82562 19.5179 3.43955L20.6104 4.5321C20.8466 4.76835 21.1671 4.90113 21.5011 4.90113C21.8352 4.90113 22.1557 4.76835 22.3919 4.5321L23.4844 3.43955C24.7123 2.21161 26.7102 2.21161 27.9381 3.43955C29.1656 4.66749 29.1659 6.66548 27.9384 7.89333L21.5011 14.3312L15.0639 7.89333C13.8362 6.66531 13.8364 4.6674 15.0641 3.43955Z" fill="#9E00FF" fill-opacity="0.2"/>
</svg>
