<svg width="43" height="43" viewBox="0 0 43 43" fill="none" xmlns="http://www.w3.org/2000/svg">
<path d="M40.8994 17.3618H36.5815V9.88383C36.5815 8.72613 35.6396 7.78426 34.4819 7.78426H30.6399V1.25974C30.6399 0.564027 30.0759 0 29.3802 0H13.6189C12.9232 0 12.3592 0.564027 12.3592 1.25974V7.78426H8.51718C7.35948 7.78426 6.41761 8.72613 6.41761 9.88383V17.3618H1.25974C0.564027 17.3618 0 17.9258 0 18.6215V40.8994C0 42.0571 0.941865 42.999 2.09956 42.999H40.8993C42.057 42.999 42.9989 42.0571 42.9989 40.8994V19.4614C42.999 18.3037 42.0571 17.3618 40.8994 17.3618ZM14.8787 2.51948H28.1205V14.7497H14.8787V2.51948ZM2.51948 19.8813H6.41753V40.4795H2.51948V19.8813ZM20.2398 40.4795H17.72V32.4964H20.2398V40.4795ZM22.7593 40.4795V32.4964H25.2791V40.4795H22.7593ZM27.7985 40.4795V31.2366C27.7985 30.5409 27.2345 29.9769 26.5387 29.9769H21.4995H16.4602C15.7645 29.9769 15.2005 30.5409 15.2005 31.2366V40.4795H8.93709V10.3037H12.3592V16.0093C12.3592 16.7051 12.9232 17.2691 13.6189 17.2691H29.3802C30.0759 17.2691 30.6399 16.7051 30.6399 16.0093V10.3037H34.062V40.4795H27.7985ZM40.4795 40.4795H36.5815V19.8813H40.4795V40.4795Z" fill="#00FF0A" fill-opacity="0.2"/>
<path d="M22.5256 19.8809H20.4785C19.7828 19.8809 19.2188 20.4449 19.2188 21.1406C19.2188 21.8363 19.7828 22.4003 20.4785 22.4003H22.5256C23.2213 22.4003 23.7853 21.8363 23.7853 21.1406C23.7853 20.4449 23.2213 19.8809 22.5256 19.8809Z" fill="#00FF0A" fill-opacity="0.2"/>
<path d="M22.5256 24.9297H20.4785C19.7828 24.9297 19.2188 25.4937 19.2188 26.1894C19.2188 26.8851 19.7828 27.4492 20.4785 27.4492H22.5256C23.2213 27.4492 23.7853 26.8851 23.7853 26.1894C23.7853 25.4937 23.2213 24.9297 22.5256 24.9297Z" fill="#00FF0A" fill-opacity="0.2"/>
<path d="M30.2835 19.8809H28.2363C27.5406 19.8809 26.9766 20.4449 26.9766 21.1406C26.9766 21.8363 27.5406 22.4003 28.2363 22.4003H30.2835C30.9792 22.4003 31.5432 21.8363 31.5432 21.1406C31.5432 20.4449 30.9792 19.8809 30.2835 19.8809Z" fill="#00FF0A" fill-opacity="0.2"/>
<path d="M30.2835 24.9297H28.2363C27.5406 24.9297 26.9766 25.4937 26.9766 26.1894C26.9766 26.8851 27.5406 27.4492 28.2363 27.4492H30.2835C30.9792 27.4492 31.5432 26.8851 31.5432 26.1894C31.5432 25.4937 30.9792 24.9297 30.2835 24.9297Z" fill="#00FF0A" fill-opacity="0.2"/>
<path d="M14.7599 19.8809H12.7129C12.0172 19.8809 11.4531 20.4449 11.4531 21.1406C11.4531 21.8363 12.0172 22.4003 12.7129 22.4003H14.7599C15.4557 22.4003 16.0197 21.8363 16.0197 21.1406C16.0197 20.4449 15.4557 19.8809 14.7599 19.8809Z" fill="#00FF0A" fill-opacity="0.2"/>
<path d="M14.7599 24.9297H12.7129C12.0172 24.9297 11.4531 25.4937 11.4531 26.1894C11.4531 26.8851 12.0172 27.4492 12.7129 27.4492H14.7599C15.4557 27.4492 16.0197 26.8851 16.0197 26.1894C16.0197 25.4937 15.4557 24.9297 14.7599 24.9297Z" fill="#00FF0A" fill-opacity="0.2"/>
<path d="M23.9551 7.37434H22.7539V6.21286C22.7539 5.51715 22.1898 4.95312 21.4941 4.95312C20.7984 4.95312 20.2344 5.51715 20.2344 6.21286V7.37434H19.0332C18.3375 7.37434 17.7734 7.93837 17.7734 8.63408C17.7734 9.32979 18.3375 9.89382 19.0332 9.89382H20.2344V11.0553C20.2344 11.751 20.7984 12.315 21.4941 12.315C22.1898 12.315 22.7539 11.751 22.7539 11.0553V9.89382H23.9551C24.6509 9.89382 25.2149 9.32979 25.2149 8.63408C25.2149 7.93837 24.6508 7.37434 23.9551 7.37434Z" fill="#00FF0A" fill-opacity="0.2"/>
</svg>
