<svg width="45" height="43" viewBox="0 0 45 43" fill="none" xmlns="http://www.w3.org/2000/svg">
<path d="M22.4423 5.60547C18.7248 5.60547 15.7109 8.61902 15.7109 12.3368C15.7109 16.0543 18.7248 19.0679 22.4423 19.0679C26.1598 19.0679 29.1737 16.0543 29.1737 12.3368C29.1696 8.62074 26.1581 5.60958 22.4423 5.60547ZM22.4423 17.572C19.551 17.572 17.2068 15.2282 17.2068 12.3368C17.2068 9.44517 19.551 7.10129 22.4423 7.10129C25.3336 7.10129 27.6779 9.44517 27.6779 12.3368C27.6744 15.2268 25.3323 17.569 22.4423 17.572Z" fill="#FF6100" fill-opacity="0.2"/>
<path d="M22.435 8.5957C20.3699 8.5957 18.6953 10.2699 18.6953 12.3354C18.6953 14.4006 20.3699 16.0748 22.435 16.0748C24.5002 16.0748 26.1748 14.4006 26.1748 12.3354C26.1724 10.2709 24.4992 8.5981 22.435 8.5957ZM22.435 14.579C21.196 14.579 20.1911 13.5745 20.1911 12.3354C20.1911 11.096 21.196 10.0915 22.435 10.0915C23.6741 10.0915 24.6789 11.096 24.6789 12.3354C24.6776 13.5741 23.6737 14.5776 22.435 14.579Z" fill="#FF6100" fill-opacity="0.2"/>
<path d="M33.6601 16.0744C34.4859 16.0737 35.1549 15.4044 35.1559 14.5786V10.0911C35.1549 9.26529 34.4859 8.59629 33.6601 8.59527H31.4155C31.0967 7.82151 30.6766 7.09362 30.1665 6.43011L31.284 4.49228C31.4853 4.14923 31.5415 3.73975 31.4398 3.35493C31.3381 2.97044 31.0871 2.64211 30.7427 2.44285L26.854 0.198942L26.8465 0.195176C26.132 -0.210877 25.2237 0.0370006 24.8145 0.749819L23.6943 2.69175C22.862 2.58596 22.0198 2.58596 21.1875 2.69175L20.0717 0.757008C19.6612 0.0393972 18.747 -0.210192 18.0284 0.198942L14.1377 2.44422C13.7946 2.64313 13.5447 2.97078 13.443 3.35424C13.3413 3.7377 13.3968 4.1458 13.5964 4.48852L14.7159 6.43011C14.2058 7.09362 13.7857 7.82151 13.467 8.59527H11.2224C10.3966 8.59629 9.72759 9.26529 9.72656 10.0911V14.5786C9.72759 15.4044 10.3966 16.0737 11.2224 16.0744H13.467C13.7857 16.8481 14.2058 17.5764 14.7159 18.2399L13.5984 20.1774C13.3971 20.5208 13.341 20.9299 13.4427 21.3147C13.5443 21.6995 13.7953 22.0275 14.1397 22.2268L18.0356 24.4745C18.2605 24.6015 18.5149 24.6683 18.7734 24.6679C19.3082 24.671 19.8029 24.3848 20.0672 23.9198L21.1875 21.9776C22.0198 22.0837 22.862 22.0837 23.6943 21.9776L24.8104 23.913C25.2213 24.6306 26.1354 24.8798 26.854 24.4704L30.7448 22.2254C31.0878 22.0262 31.3378 21.6989 31.4394 21.3154C31.5411 20.9319 31.4857 20.5235 31.2861 20.1808L30.1665 18.2399C30.6766 17.5764 31.0967 16.8481 31.4155 16.0744H33.6601ZM30.1935 15.0815C29.8614 16.035 29.3527 16.917 28.6943 17.6822C28.4878 17.9228 28.456 18.2676 28.6145 18.5422L29.9953 20.9313L26.1111 23.1728L24.7348 20.7868C24.5769 20.5125 24.263 20.3674 23.9518 20.4249C22.9531 20.607 21.9297 20.607 20.931 20.4249C20.6195 20.367 20.3055 20.5122 20.148 20.7868L18.7765 23.1752L14.8919 20.9285L16.2679 18.5425C16.4264 18.268 16.3946 17.9235 16.1885 17.6825C15.5298 16.9176 15.021 16.0353 14.6889 15.0818C14.5848 14.7809 14.301 14.5786 13.9822 14.5786H11.2224V10.0911H13.9822C14.3006 10.0911 14.5841 9.88909 14.6886 9.58815C15.021 8.63498 15.5298 7.75269 16.1885 6.98783C16.3946 6.7468 16.4268 6.40203 16.2683 6.12745L14.8871 3.73838L18.7713 1.49687L20.1477 3.88286C20.3048 4.15779 20.6191 4.3033 20.9307 4.24475C21.9294 4.06295 22.9527 4.06295 23.9514 4.24475C24.2626 4.30261 24.5766 4.15779 24.7348 3.8832L26.106 1.49756H26.1073L26.1118 1.49859L29.9902 3.74215L28.6142 6.12814C28.4557 6.40272 28.4875 6.74749 28.6936 6.98817C29.3523 7.75337 29.8611 8.63567 30.1932 9.58883C30.298 9.88977 30.5818 10.0914 30.9002 10.0911H33.6601V14.5786H30.9002C30.5815 14.5786 30.298 14.7806 30.1935 15.0815Z" fill="#FF6100" fill-opacity="0.2"/>
<path d="M2.2439 43.0008H5.98329C6.61805 42.999 7.22199 42.7269 7.64379 42.2527H26.4017C27.499 42.253 28.5754 41.951 29.5124 41.3803L43.5322 32.8463C44.2057 32.4362 44.6747 31.761 44.8243 30.9869C44.9736 30.2368 44.8041 29.4586 44.3563 28.8389C44.343 28.8166 44.3286 28.7954 44.3132 28.7749C43.5915 27.8104 42.3329 27.4174 41.1907 27.7994L27.3466 32.4143C27.1176 32.4903 26.8776 32.5293 26.6362 32.5293H26.2065C26.5619 31.5556 26.4599 30.4737 25.9282 29.5842L25.861 29.4726C25.0462 28.1244 23.5877 27.2989 22.0124 27.2941H18.1009C16.7211 27.2924 15.3828 26.823 14.3043 25.9623C12.9601 24.89 11.2921 24.3049 9.57237 24.3025H8.08922C7.77458 23.4085 6.93097 22.8097 5.98329 22.8066H2.2439C1.0052 22.808 0.00136949 23.8118 0 25.0505V40.7568C0.00136949 41.9955 1.0052 42.9994 2.2439 43.0008ZM13.3693 27.1305C14.7131 28.2028 16.3811 28.7879 18.1005 28.7899H22.0121C23.0622 28.793 24.0348 29.3432 24.5775 30.2419L24.6449 30.3535C25.0531 31.0342 25.0092 31.8942 24.5337 32.5297H19.988C18.511 32.5286 17.0672 32.9658 15.8391 33.7862L15.2913 34.1515C15.0664 34.2983 14.9377 34.5551 14.9541 34.8232C14.9705 35.0916 15.1297 35.3306 15.3711 35.4491C15.6125 35.5675 15.8991 35.547 16.1213 35.396L16.6691 35.0307C17.6513 34.3744 18.8065 34.0245 19.988 34.0255H26.6358C27.0381 34.0255 27.4377 33.9608 27.8191 33.8337L41.6639 29.2193C42.1706 29.0447 42.7324 29.2015 43.0758 29.613C43.0889 29.6349 43.1036 29.6558 43.1186 29.6767C43.3388 29.9704 43.4247 30.3433 43.3556 30.7034C43.2864 31.0636 43.0683 31.3779 42.755 31.569L28.7353 40.1029C28.032 40.5305 27.2247 40.7568 26.4017 40.7568H8.22719V25.7983H9.57237C10.9521 25.8 12.2908 26.2697 13.3693 27.1305ZM1.49582 25.0505C1.49616 24.6376 1.831 24.3028 2.2439 24.3025H5.98329C6.39619 24.3028 6.73103 24.6376 6.73137 25.0505V40.7568C6.73103 41.1697 6.39619 41.5042 5.98329 41.5046H2.2439C1.831 41.5042 1.49616 41.1697 1.49582 40.7568V25.0505Z" fill="#FF6100" fill-opacity="0.2"/>
</svg>
