<svg width="51" height="43" viewBox="0 0 51 43" fill="none" xmlns="http://www.w3.org/2000/svg">
<path d="M1.97806 8.34278C2.20723 5.85983 4.30182 3.90909 6.84361 3.90909C6.85074 3.90909 6.85788 3.90909 6.86482 3.90919C7.61302 2.91442 8.70776 2.24177 9.91801 2.02784C10.2999 0.85228 11.406 0 12.7072 0C13.3145 0 13.894 0.195455 14.3813 0.552941C15.0738 0.189298 15.8333 0 16.6163 0C17.3993 0 18.1589 0.189396 18.8514 0.552941C19.3387 0.195455 19.9181 0 20.5254 0C21.8267 0 22.9327 0.85228 23.3147 2.02784C24.5249 2.24186 25.6197 2.91442 26.3679 3.90919C26.3748 3.90919 26.3819 3.90909 26.3891 3.90909C28.9308 3.90909 31.0254 5.85983 31.2546 8.34278C32.4592 9.02863 33.23 10.314 33.23 11.7273C33.23 12.5612 32.9644 13.3606 32.485 14.0211C33.1691 15.1103 33.3053 16.3991 33.205 16.8334L31.2257 25.4091H49.0618C49.6015 25.4091 50.0391 25.8466 50.0391 26.3864V30.5349C50.0391 30.9124 49.8216 31.2562 49.4805 31.418C48.6586 31.8077 48.0845 32.9535 48.0845 34.2045C48.0845 35.4556 48.6586 36.6014 49.4805 36.9911C49.8216 37.1529 50.0391 37.4966 50.0391 37.8742V42.0227C50.0391 42.5625 49.6015 43 49.0618 43H6.84361C6.38859 43 5.99368 42.6859 5.89136 42.2425L0.0277214 16.8334C-0.0796814 16.3673 0.0824432 15.0801 0.747578 14.021C0.268127 13.3605 0.00270081 12.5611 0.00270081 11.7274C0.00270081 10.314 0.773476 9.02853 1.97806 8.34278ZM29.9592 9.89235C29.5473 9.74898 29.2379 9.34419 29.3207 8.76105C29.3021 7.16038 27.9941 5.86373 26.3891 5.86373C26.1495 5.86373 25.4165 6.11685 25.023 5.41702C24.5003 4.48695 23.5259 3.90919 22.48 3.90919C21.9403 3.90919 21.5027 3.47166 21.5027 2.93192C21.5027 2.39305 21.0643 1.95464 20.5254 1.95464C20.1337 1.95464 19.8815 2.21655 19.766 2.37262C19.4421 2.81054 18.8213 2.89947 18.3871 2.56798C17.8619 2.16671 17.2495 1.95464 16.6163 1.95464C15.9832 1.95464 15.3708 2.16671 14.8456 2.56798C14.414 2.89781 13.792 2.81259 13.4667 2.37262C13.3512 2.21645 13.0989 1.95464 12.7072 1.95464C12.1684 1.95464 11.73 2.39305 11.73 2.93192C11.73 3.47166 11.2924 3.90919 10.7527 3.90919C9.70673 3.90919 8.73228 4.48695 8.20964 5.41702C7.81853 6.11265 7.11382 5.86373 6.84361 5.86373C5.23854 5.86373 3.93055 7.16028 3.91199 8.76105C3.99466 9.34898 3.68135 9.75045 3.27344 9.89244C2.48615 10.1666 1.95724 10.9039 1.95724 11.7274C1.95724 12.0236 2.02438 12.3111 2.14909 12.5712C2.95094 12.028 3.90573 11.7274 4.88906 11.7274C6.48583 11.7274 7.90571 12.4976 8.79796 13.6855C9.69011 12.4974 11.1104 11.7274 12.7072 11.7274C14.304 11.7274 15.7241 12.4973 16.6163 13.6853C17.5086 12.4974 18.9287 11.7274 20.5254 11.7274C22.1223 11.7274 23.5425 12.4975 24.4347 13.6855C25.327 12.4976 26.7468 11.7274 28.3436 11.7274C29.3272 11.7274 30.2824 12.0283 31.0838 12.5711C31.2084 12.3109 31.2754 12.0235 31.2754 11.7274C31.2754 10.9038 30.7465 10.1664 29.9592 9.89235ZM31.2736 16.5101C31.249 15.8095 30.9758 15.1444 30.4963 14.6256C29.9449 14.0257 29.1603 13.6817 28.3436 13.6817C26.727 13.6817 25.4118 14.9969 25.4118 16.6135C25.4118 16.65 25.4094 16.6859 25.4055 16.7213L25.4052 16.7256L24.4031 25.4091H29.2196L31.2736 16.5101ZM48.0845 38.4288C46.88 37.5718 46.13 35.9851 46.13 34.2045C46.13 32.424 46.88 30.8373 48.0845 29.9803V27.3636H43.5891V28.3409C43.5891 28.8807 43.1515 29.3182 42.6118 29.3182C42.072 29.3182 41.6345 28.8807 41.6345 28.3409V27.3636H27.3663V28.3409C27.3663 28.8807 26.9288 29.3182 26.3891 29.3182C25.8494 29.3182 25.4118 28.8807 25.4118 28.3409V27.3636H21.5027V29.9803C22.7071 30.8373 23.4572 32.424 23.4572 34.2045C23.4572 35.9851 22.7071 37.5718 21.5027 38.4288V41.0455H25.4118V40.0682C25.4118 39.5284 25.8494 39.0909 26.3891 39.0909C26.9288 39.0909 27.3663 39.5284 27.3663 40.0682V41.0455H41.6345V40.0682C41.6345 39.5284 42.072 39.0909 42.6118 39.0909C43.1515 39.0909 43.5891 39.5284 43.5891 40.0682V41.0455H48.0845V38.4288ZM12.6009 41.0455H15.6391V32.7386C15.6391 23.9432 15.7479 16.7213 16.5391 25C17.5936 16.7213 17.5936 23.9432 17.5936 32.7386V41.0455H19.5482V37.8742C19.5482 37.4967 19.7656 37.1529 20.1068 36.9911C20.9286 36.6014 21.5027 35.4556 21.5027 34.2045C21.5027 32.9535 20.9286 31.8077 20.1068 31.418C19.7656 31.2562 19.5482 30.9125 19.5482 30.5349V26.3864C19.5482 25.8466 19.9858 25.4091 20.5254 25.4091H22.4358L23.4561 16.5678C23.4313 14.9723 22.1267 13.6818 20.5254 13.6818C18.9088 13.6818 17.5936 14.997 17.5936 16.6136V23.9432C17.5391 25.5 17.5391 25 16.5391 25C15.56 25 15.5391 25.5 15.6391 23.9432V16.6136C15.6391 14.997 14.3238 13.6818 12.7072 13.6818C11.106 13.6818 9.80123 14.9723 9.7766 16.5678L12.6009 41.0455ZM7.62103 41.0455H10.6335C7.65855 15.2607 7.82088 16.6992 7.82088 16.6136C7.82088 14.997 6.50567 13.6818 4.88906 13.6818C4.07246 13.6818 3.2877 14.0258 2.73447 14.6276C2.25668 15.1445 1.98354 15.8094 1.95901 16.5101L7.62103 41.0455Z" fill="#FF9900" fill-opacity="0.2"/>
</svg>
