<svg width="48" height="43" viewBox="0 0 48 43" fill="none" xmlns="http://www.w3.org/2000/svg">
<path d="M6.56938 40.6107C7.22632 40.6107 7.76381 40.0732 7.76381 39.4163C7.76381 38.7593 7.22632 38.2219 6.56938 38.2219C3.30858 38.2219 2.40081 37.332 2.38887 34.1011L4.66426 11.9443H9.55546V15.229C9.55546 15.886 10.093 16.4235 10.7499 16.4235C11.4068 16.4235 11.9443 15.886 11.9443 15.229V11.9443H21.4998V15.229C21.4998 15.886 22.0373 16.4235 22.6942 16.4235C23.3512 16.4235 23.8887 15.886 23.8887 15.229V11.9443H28.8515L29.2815 14.5303C29.389 15.1812 30.0101 15.6232 30.6551 15.5097C31.3061 15.4022 31.748 14.7871 31.6346 14.1361L31.0373 10.5528C30.9418 9.97949 30.4461 9.55546 29.8608 9.55546H23.8887V6.86799C23.8887 3.14733 20.604 0 16.7221 0C12.8402 0 9.55546 3.14733 9.55546 6.86799V9.55546H3.5833C2.96817 9.55546 2.46053 10.0213 2.39484 10.6305L0.0059723 33.9219C1.36825e-07 33.9577 0 33.9995 0 34.0413C0 38.6459 1.96484 40.6107 6.56938 40.6107ZM11.9443 6.86799C11.9443 4.47912 14.1779 2.38887 16.7221 2.38887C19.2662 2.38887 21.4998 4.47912 21.4998 6.86799V9.55546H11.9443V6.86799Z" fill="#0057FF" fill-opacity="0.2"/>
<path d="M29.8755 20.3051H26.0115C25.4083 20.3051 24.9006 20.753 24.829 21.3502L22.7805 37.8035C22.7686 37.9409 22.7686 38.0842 22.7686 38.2216H10.1554C9.49843 38.2216 8.96094 38.7591 8.96094 39.416C8.96094 40.0729 9.49843 40.6104 10.1554 40.6104H23.2941C23.33 40.6104 23.3598 40.6045 23.3957 40.5985C23.5688 40.9031 23.7719 41.1838 24.0108 41.4465C24.9126 42.4319 26.1966 42.9993 27.5344 42.9993H42.4051C43.7428 42.9993 45.0268 42.4319 45.9286 41.4465C46.8304 40.4611 47.2783 39.1353 47.1589 37.7617L45.1164 21.3502C45.0448 20.753 44.5311 20.3051 43.9339 20.3051H40.0102C39.8908 17.6534 37.705 15.5273 35.0175 15.5273H34.8682C32.1807 15.5273 29.9949 17.6534 29.8755 20.3051ZM44.782 38.0125C44.8417 38.6874 44.6207 39.3324 44.1668 39.834C43.713 40.3357 43.0859 40.6104 42.4051 40.6104H27.5344C26.8595 40.6104 26.2324 40.3357 25.7726 39.834C25.3127 39.3324 25.0977 38.6874 25.1515 38.0543L27.0685 22.6939H29.8635V25.0828C29.8635 25.7397 30.401 26.2772 31.0579 26.2772C31.7149 26.2772 32.2524 25.7397 32.2524 25.0828V22.6939H37.6273V25.0828C37.6273 25.7397 38.1648 26.2772 38.8218 26.2772C39.4787 26.2772 40.0162 25.7397 40.0162 25.0828V22.6939H42.8769L44.782 38.0125ZM34.8682 17.9162H35.0175C36.3791 17.9162 37.49 18.9733 37.6094 20.3051H32.2822C32.3897 18.9733 33.5006 17.9162 34.8682 17.9162Z" fill="#0057FF" fill-opacity="0.2"/>
</svg>
