<svg width="44" height="44" viewBox="0 0 44 44" fill="none" xmlns="http://www.w3.org/2000/svg">
<path d="M23.2143 25.4143C23.2143 25.7687 23.5016 26.0561 23.8561 26.0561C24.2106 26.0561 24.4979 25.7687 24.4979 25.4143C24.4979 24.2602 23.6002 23.3976 22.5476 23.4561V23.1012C22.5476 22.7468 22.2603 22.4594 21.9058 22.4594C21.5514 22.4594 21.264 22.7468 21.264 23.1012V23.4561C20.2056 23.3847 19.3119 24.2782 19.3138 25.4143V26.2919C19.3085 27.4137 20.2056 28.3316 21.264 28.2502V30.4772C20.8996 30.5212 20.5973 30.2479 20.5973 29.8025C20.5973 29.448 20.31 29.1607 19.9555 29.1607C19.6011 29.1607 19.3138 29.448 19.3138 29.8025C19.3138 30.9242 20.2056 31.8423 21.264 31.7607V32.1157C21.264 32.4701 21.5514 32.7574 21.9058 32.7574C22.2603 32.7574 22.5476 32.4701 22.5476 32.1157V31.7607C23.596 31.8191 24.5007 30.9482 24.4979 29.8025V28.9248C24.5004 27.7704 23.6001 26.9083 22.5476 26.9665V24.7396C22.9011 24.6789 23.2143 24.9812 23.2143 25.4143ZM21.264 26.9667C20.8997 27.0108 20.5978 26.7374 20.5973 26.292V25.4144C20.5964 24.9907 20.9116 24.674 21.264 24.7397V26.9667ZM23.2143 28.9249V29.8026C23.209 30.2239 22.905 30.5449 22.5476 30.4773V28.2502C22.9011 28.1893 23.215 28.4919 23.2143 28.9249ZM24.858 6.82765C24.858 5.19987 23.5336 3.87551 21.9058 3.87551C20.278 3.87551 18.9537 5.19987 18.9537 6.82765C18.9537 8.45544 20.278 9.77979 21.9058 9.77979C23.5336 9.77979 24.858 8.45544 24.858 6.82765ZM20.2372 6.82765C20.2372 5.90761 20.9858 5.15905 21.9058 5.15905C22.8259 5.15905 23.5744 5.90761 23.5744 6.82765C23.5744 7.74769 22.8259 8.49625 21.9058 8.49625C20.9858 8.49625 20.2372 7.74769 20.2372 6.82765ZM21.9058 20.2548C17.851 20.2548 14.5522 23.5537 14.5522 27.6085C14.5522 31.6633 17.851 34.9621 21.9058 34.9621C25.9607 34.9621 29.2595 31.6633 29.2595 27.6085C29.2595 23.5537 25.9607 20.2548 21.9058 20.2548ZM21.9058 33.6786C18.5588 33.6786 15.8357 30.9555 15.8357 27.6085C15.8357 24.2614 18.5588 21.5384 21.9058 21.5384C25.2529 21.5384 27.9759 24.2614 27.9759 27.6085C27.9759 30.9555 25.2529 33.6786 21.9058 33.6786ZM40.934 16.557C42.4194 16.65 43.8242 15.5698 43.8115 13.99V12.0647C43.8009 11.8808 43.7404 11.6478 43.4744 11.4997L23.4616 0.405085C22.4875 -0.135028 21.3242 -0.135028 20.35 0.405085L12.2757 4.88138C11.9657 5.0532 11.8537 5.44383 12.0256 5.75384C12.1974 6.06386 12.5881 6.17596 12.898 6.00396L20.9723 1.52767C21.557 1.20362 22.2549 1.2037 22.8394 1.52767L40.6886 11.4229H3.12312L10.249 7.47242C10.559 7.30059 10.671 6.90997 10.4991 6.59995C10.3273 6.28994 9.93665 6.17793 9.62664 6.34983L0.337416 11.4996C0.189895 11.5861 -0.00246503 11.7709 0.000102043 12.0647V13.99C-0.013589 15.5011 1.35244 16.722 2.87762 16.557L5.13425 19.7335V35.4835L2.87762 38.6598H1.49756C0.671906 38.6598 0.000102043 39.3316 0.000102043 40.1573V42.2965C0.000102043 43.1222 0.671906 43.794 1.49756 43.794H42.3141C43.1397 43.794 43.8115 43.1222 43.8115 42.2965V40.1573C43.8115 39.3316 43.1397 38.6598 42.3141 38.6598H40.934L38.6774 35.4835V19.7335L40.934 16.557ZM2.56718 15.2735C1.85944 15.2735 1.28364 14.6977 1.28364 13.99V12.7064H42.528V13.99C42.528 14.6977 41.9522 15.2735 41.2445 15.2735H2.56718ZM32.88 28.1595C33.2345 28.1595 33.5218 27.8722 33.5218 27.5178V20.1705H37.3938V35.0465H33.5218V30.5127C33.5218 30.1583 33.2345 29.8709 32.88 29.8709C32.5255 29.8709 32.2382 30.1583 32.2382 30.5127V35.4835L29.9816 38.6598H13.8301L11.5735 35.4835V19.7335L13.8301 16.557H29.9817L32.2383 19.7335V27.5178C32.2382 27.8722 32.5256 28.1595 32.88 28.1595ZM4.45218 16.557H12.2557L10.6005 18.8869H6.10735L4.45218 16.557ZM10.29 20.1705V35.0465H6.41779V20.1705H10.29ZM6.10735 36.33H10.6004L12.2556 38.6598H4.45218L6.10735 36.33ZM42.3141 39.9434C42.4321 39.9434 42.528 40.0394 42.528 40.1573V42.2965C42.528 42.4144 42.4321 42.5104 42.3141 42.5104H1.49756C1.37965 42.5104 1.28364 42.4144 1.28364 42.2965V40.1573C1.28364 40.0394 1.37965 39.9434 1.49756 39.9434H42.3141ZM39.3595 38.6598H31.5561L33.2114 36.33H37.7044L39.3595 38.6598ZM37.7043 18.8869H33.2113L31.5561 16.557H39.3595L37.7043 18.8869Z" fill="#00FFB2" fill-opacity="0.2"/>
</svg>
