<svg width="38" height="44" viewBox="0 0 38 44" fill="none" xmlns="http://www.w3.org/2000/svg">
<path d="M36.9584 22.9021H34.2378V20.3103C34.2378 20.0512 34.1393 19.8015 33.9617 19.611C33.7842 19.4205 33.5408 19.3032 33.2799 19.2824C27.7217 18.8395 22.9226 19.9764 19 22.6615C15.0773 19.9761 10.2774 18.8389 4.72014 19.2823C4.45922 19.3031 4.21577 19.4204 4.03825 19.6108C3.86073 19.8013 3.76216 20.051 3.76216 20.3102V22.9021H1.04157C0.76533 22.9021 0.500402 23.0108 0.305069 23.2042C0.109737 23.3976 0 23.6599 0 23.9334V42.9687C0 43.2422 0.109737 43.5046 0.305069 43.698C0.500402 43.8913 0.76533 44 1.04157 44H36.9584C37.2347 44 37.4996 43.8913 37.6949 43.698C37.8903 43.5046 38 43.2422 38 42.9687V23.9334C38 23.6599 37.8903 23.3976 37.6949 23.2042C37.4996 23.0108 37.2347 22.9021 36.9584 22.9021ZM32.1548 21.2787V38.2494C27.5467 38.0571 23.4846 38.9911 20.0417 41.0329V24.4585C23.3641 22.1351 27.4323 21.067 32.1547 21.2784L32.1548 21.2787ZM5.84539 21.2787C10.5672 21.0666 14.636 22.1354 17.9585 24.4584V41.0336C14.8099 39.1662 11.1439 38.2249 7.01524 38.2249C6.62934 38.2249 6.23936 38.2332 5.8453 38.2496L5.84539 21.2787ZM2.08314 24.9647H3.76216V39.3459C3.76216 39.4883 3.79195 39.6292 3.84965 39.7596C3.90735 39.8901 3.9917 40.0072 4.09741 40.1038C4.20311 40.2004 4.32786 40.2742 4.46381 40.3207C4.59976 40.3672 4.74395 40.3853 4.88731 40.3738C8.7689 40.065 12.2282 40.5907 15.2178 41.9375H2.08314V24.9647ZM35.9169 41.9375H22.782C25.7716 40.5907 29.2311 40.0647 33.1127 40.3738C33.256 40.3853 33.4002 40.3672 33.5362 40.3207C33.6721 40.2742 33.7969 40.2004 33.9026 40.1038C34.0083 40.0072 34.0927 39.8901 34.1504 39.7596C34.208 39.6292 34.2378 39.4883 34.2378 39.3459V24.9647H35.9169V41.9375ZM10.6944 15.949L18.425 21.0177C18.5955 21.1295 18.7955 21.1892 19.0001 21.1892C19.2046 21.1892 19.4047 21.1295 19.5752 21.0177L27.3058 15.949C27.4491 15.855 27.5667 15.7273 27.6481 15.5773C27.7295 15.4274 27.7721 15.2598 27.7722 15.0896V11.0566L30.6634 9.16095C30.8068 9.06692 30.9245 8.93918 31.0059 8.78914C31.0873 8.63911 31.1299 8.47145 31.1299 8.30114C31.1299 8.13083 31.0873 7.96317 31.0059 7.81314C30.9245 7.6631 30.8068 7.53536 30.6634 7.44133L19.5752 0.171464C19.4047 0.0596345 19.2046 0 19.0001 0C18.7955 0 18.5955 0.0596345 18.425 0.171464L7.33666 7.44184L7.3344 7.44356C7.30163 7.46526 7.27015 7.48882 7.24014 7.51412C7.23146 7.52108 7.22408 7.52864 7.21592 7.53586C7.19483 7.55468 7.17443 7.5741 7.15516 7.59456C7.14648 7.60401 7.1378 7.61355 7.12912 7.62335C7.11037 7.64449 7.09267 7.66631 7.07566 7.68917C7.06949 7.69777 7.0629 7.7055 7.05699 7.71392C7.0121 7.77798 6.97471 7.84689 6.94555 7.91932C6.94199 7.92791 6.93904 7.9365 6.93574 7.9457C6.92532 7.97366 6.91612 8.00231 6.90814 8.03164C6.90519 8.04247 6.90232 8.0533 6.89946 8.0643C6.89269 8.09274 6.88731 8.12162 6.88297 8.15092C6.8814 8.16158 6.87932 8.17198 6.8781 8.18272C6.87326 8.22233 6.87074 8.26219 6.87055 8.30209V13.2355C6.87055 13.5091 6.98029 13.7714 7.17562 13.9648C7.37095 14.1582 7.63588 14.2668 7.91212 14.2668C8.18837 14.2668 8.45329 14.1582 8.64863 13.9648C8.84396 13.7714 8.9537 13.5091 8.9537 13.2355V10.2209L10.2283 11.0566V15.0892C10.2283 15.2594 10.2708 15.4271 10.3522 15.5771C10.4335 15.7271 10.5511 15.8549 10.6944 15.949ZM25.6891 14.5352L19 18.9211L12.3111 14.5352V12.4225L18.425 16.431C18.5955 16.5428 18.7955 16.6025 19.0001 16.6025C19.2046 16.6025 19.4047 16.5428 19.5752 16.431L25.6891 12.4223V14.5352ZM19 2.26776L28.2019 8.30123L19 14.3341L9.79815 8.30123L19 2.26776Z" fill="#00F0FF" fill-opacity="0.2"/>
</svg>
