<svg width="50" height="43" viewBox="0 0 50 43" fill="none" xmlns="http://www.w3.org/2000/svg">
<path d="M45.6547 35.7455H45.0036C44.9335 32.3519 44.2311 29.2542 42.9343 26.5536C42.9702 26.2187 42.9724 25.8788 42.9454 25.5439L42.3875 14.392C44.3067 13.566 45.2844 11.4084 45.2844 9.172C45.2867 7.06578 45.333 4.96232 45.2844 2.85887L45.2817 2.77886L45.274 2.69995C45.0461 0.737203 42.989 -0.176575 41.4814 0.775829C41.1156 0.499378 40.6604 0.327768 40.1356 0.312869C39.6109 0.300178 39.1297 0.450819 38.7285 0.714579C38.4957 0.553454 38.2269 0.430403 37.9273 0.356462C36.2951 -0.0430403 34.7925 1.22665 34.7776 2.87156C34.7776 2.93612 34.7754 2.99958 34.7754 3.06414V9.16979C34.7727 11.3781 35.7168 13.492 37.5896 14.349L37.2287 19.6948C35.9232 18.7457 34.4846 17.9616 32.9264 17.3535C32.9109 17.3474 32.8955 17.3419 32.8806 17.3364V14.5123C32.8806 12.8679 31.5436 11.5298 29.9009 11.5298H20.5694C18.925 11.5298 17.5869 12.8679 17.5869 14.5123V17.3243C16.1931 17.8507 14.8638 18.5222 13.6217 19.3295L13.3635 14.5741C15.5535 13.0517 16.8332 10.4698 16.8332 7.77208C16.8332 4.74216 15.1187 0.655537 11.8024 0.0640087C11.5596 0.0204166 11.3168 0 11.0707 0C7.64462 0 5.65373 3.86204 5.35465 6.84009C5.32375 7.1502 5.3083 7.45976 5.3083 7.77153C5.3083 10.3611 6.50626 12.9331 8.55619 14.5095L7.99832 24.8359C5.91749 27.9056 4.66932 31.5971 4.33051 35.745H3.62752C1.62725 35.745 0 37.3722 0 39.3725C0 41.3727 1.62725 43 3.62752 43H45.6558C47.6555 43 49.2828 41.3727 49.2828 39.3725C49.2817 37.3728 47.6544 35.7455 45.6547 35.7455ZM36.491 9.16924L36.4937 3.06579C36.4937 3.00951 36.4937 2.95323 36.4937 2.89694C36.4965 1.7939 38.0906 1.62008 38.0879 2.89694L38.0851 9.54005H39.3338L39.3366 2.89694C39.2136 1.95226 40.6802 1.54835 40.7928 2.89694V9.61454H42.0415L42.0437 2.89694C41.9775 2.01903 43.431 1.7172 43.5667 2.89694C43.6153 4.9546 43.5667 7.10165 43.5667 9.16924C43.5667 11.6926 42.2336 13.0258 40.6008 13.0307L41.1272 23.5546C40.6245 22.8765 40.0749 22.2336 39.4779 21.6288C39.277 21.4252 39.0706 21.2277 38.861 21.0346L39.4006 13.0307C37.7938 12.9766 36.4882 11.6639 36.491 9.16924ZM19.3907 14.5117C19.3907 13.8623 19.9194 13.3337 20.5694 13.3337H29.8992C30.5476 13.3337 31.0751 13.8623 31.0751 14.5117V16.7311C29.2117 16.2025 27.2655 15.9348 25.2668 15.9348C23.2506 15.9348 21.2746 16.208 19.3907 16.7327V14.5117ZM7.06854 7.77208C7.06854 4.81665 8.86023 1.76079 11.0707 1.76079C13.279 1.76079 15.0702 4.81665 15.0702 7.77208C15.0702 10.7275 13.2868 12.7648 11.5469 13.5991L11.926 20.5628C11.7047 20.7421 11.4868 20.9253 11.2727 21.114C10.7871 21.5428 10.3269 21.993 9.88988 22.4621L10.3666 13.5985C8.85471 12.7642 7.06854 10.7275 7.06854 7.77208ZM22.8091 17.8932C23.6197 17.7933 24.4392 17.7436 25.2635 17.7436C26.3727 17.7436 27.4663 17.8341 28.5374 18.0135C28.624 18.0284 28.7101 18.0438 28.7973 18.0598C28.8425 18.0675 28.8883 18.0753 28.9336 18.0835C32.5103 18.7661 35.767 20.4381 38.1944 22.8952C41.3623 26.1028 43.0839 30.531 43.2003 35.745H6.13821C7.11323 24.5572 14.9769 18.8726 22.8091 17.8932ZM45.6547 41.1962H3.62642C2.62104 41.1962 1.80328 40.3784 1.80328 39.373C1.80328 38.3677 2.62104 37.5499 3.62642 37.5499H5.17201H44.1064H45.6547C46.6595 37.5499 47.4778 38.3677 47.4778 39.373C47.4778 40.3784 46.6595 41.1962 45.6547 41.1962Z" fill="#FAFF00" fill-opacity="0.2"/>
</svg>
