<svg width="15" height="15" viewBox="0 0 15 15" fill="none" xmlns="http://www.w3.org/2000/svg">
<path d="M7.16076 12.2532C9.48205 12.2532 11.3698 10.3655 11.3698 8.04417C11.3698 5.72288 9.48205 3.83062 7.16076 3.83062C4.83947 3.83062 2.95174 5.71837 2.95174 8.04417C2.95174 10.37 4.83947 12.2532 7.16076 12.2532ZM3.97238 8.04417C3.97238 6.28288 5.40399 4.85127 7.16076 4.85127C8.91754 4.85127 10.3491 6.28288 10.3491 8.04417C10.3491 9.80546 8.91754 11.2326 7.16076 11.2326C5.40399 11.2326 3.97238 9.80095 3.97238 8.04417ZM14.1562 12.0319C14.1562 13.6126 12.8782 14.8906 11.2975 14.8906H3.01496C1.43432 14.8906 0.15625 13.6126 0.15625 12.0319V3.74933C0.15625 2.16869 1.43432 0.890625 3.01496 0.890625H11.2975C12.8782 0.890625 14.1562 2.16869 14.1562 3.74933V12.0319ZM13.253 3.72224C13.253 2.66095 12.7562 1.79385 11.6498 1.79385H2.87948C1.77302 1.79385 1.05948 2.66095 1.05948 3.72224V12.1403C1.05948 13.2016 1.77302 13.9874 2.87948 13.9874H11.6498C12.7562 13.9874 13.253 13.2016 13.253 12.1403V3.72224ZM12.5621 4.0203C12.5621 4.38611 12.264 4.68417 11.8982 4.68417C11.5324 4.68417 11.2343 4.38611 11.2343 4.0203C11.2343 3.65449 11.5324 3.35643 11.8982 3.35643C12.264 3.35643 12.5621 3.65449 12.5621 4.0203Z" fill="white"/>
</svg>
