<svg width="25" height="24" viewBox="0 0 25 24" fill="none" xmlns="http://www.w3.org/2000/svg">
<g filter="url(#filter0_d_1727_12626)">
<path d="M4.15625 5.89256H7.88544V15.8906H4.15625V5.89256ZM6.02085 0.890625C4.85393 0.890625 3.94016 1.89912 4.20564 3.03514C4.36 3.69588 4.92802 4.22332 5.63805 4.35663C6.84201 4.58267 7.89162 3.73066 7.89162 2.64101C7.89162 1.67888 7.05811 0.890625 6.02702 0.890625H6.02085ZM20.135 8.96443C19.8818 7.08074 18.8816 5.89256 16.165 5.89256C14.2387 5.89256 13.4731 6.17657 13.0285 6.96482V5.89256H10.0094V15.8906H13.115V10.6569C13.115 9.35276 13.3805 8.36164 15.0969 8.36164C16.8133 8.36164 16.9306 9.5788 16.9306 10.738V15.8906H20.1288C20.1288 15.8906 20.1905 9.40492 20.1288 8.96443H20.135Z" fill="white"/>
</g>
<defs>
<filter id="filter0_d_1727_12626" x="0.15625" y="0.890625" width="24" height="23" filterUnits="userSpaceOnUse" color-interpolation-filters="sRGB">
<feFlood flood-opacity="0" result="BackgroundImageFix"/>
<feColorMatrix in="SourceAlpha" type="matrix" values="0 0 0 0 0 0 0 0 0 0 0 0 0 0 0 0 0 0 127 0" result="hardAlpha"/>
<feOffset dy="4"/>
<feGaussianBlur stdDeviation="2"/>
<feComposite in2="hardAlpha" operator="out"/>
<feColorMatrix type="matrix" values="0 0 0 0 0 0 0 0 0 0 0 0 0 0 0 0 0 0 0.25 0"/>
<feBlend mode="normal" in2="BackgroundImageFix" result="effect1_dropShadow_1727_12626"/>
<feBlend mode="normal" in="SourceGraphic" in2="effect1_dropShadow_1727_12626" result="shape"/>
</filter>
</defs>
</svg>
