<svg width="17" height="13" viewBox="0 0 17 13" fill="none" xmlns="http://www.w3.org/2000/svg">
<path d="M16 3.35714L13.0327 4.91146C11.3783 5.77801 10.5512 6.21133 9.67517 6.3812C8.89983 6.53151 8.10017 6.53151 7.32483 6.3812C6.44887 6.21133 5.62169 5.77801 3.96733 4.91146L1 3.35714M3.66667 12H13.3333C14.2667 12 14.7335 12 15.09 11.8287C15.4036 11.6781 15.6586 11.4377 15.8183 11.142C16 10.8059 16 10.3658 16 9.48571V3.51429C16 2.63421 16 2.19416 15.8183 1.85802C15.6586 1.56233 15.4036 1.32193 15.09 1.17128C14.7335 1 14.2667 1 13.3333 1H3.66667C2.73325 1 2.26653 1 1.91002 1.17128C1.59641 1.32193 1.34144 1.56233 1.18166 1.85802C1 2.19416 1 2.6342 1 3.51429V9.48571C1 10.3658 1 10.8059 1.18166 11.142C1.34144 11.4377 1.59641 11.6781 1.91002 11.8287C2.26653 12 2.73324 12 3.66667 12Z" stroke="white" stroke-linecap="round" stroke-linejoin="round"/>
</svg>
