<svg width="15" height="15" viewBox="0 0 15 15" fill="none" xmlns="http://www.w3.org/2000/svg">
<path d="M10.3031 10.2262L10.6535 9.85734L9.81693 9.06275L9.46656 9.43158L10.3031 10.2262ZM11.8063 9.70203L13.2759 10.5479L13.8515 9.54796L12.3819 8.70206L11.8063 9.70203ZM13.5595 12.3016L12.4668 13.4521L13.3034 14.2467L14.3961 13.0962L13.5595 12.3016ZM11.8093 13.8207C10.7055 13.9297 7.82538 13.8367 4.69922 10.5454L3.86264 11.34C7.26971 14.927 10.5198 15.1074 11.9226 14.9689L11.8093 13.8207ZM4.69922 10.5454C1.71768 7.40634 1.21756 4.75855 1.15523 3.59718L0.00308072 3.65902C0.0794243 5.08146 0.683389 7.99286 3.86264 11.34L4.69922 10.5454ZM5.75714 5.44009L5.97776 5.20779L5.14118 4.4132L4.92056 4.64547L5.75714 5.44009ZM6.15108 2.31598L5.18112 0.944109L4.23901 1.61022L5.20897 2.98208L6.15108 2.31598ZM1.89816 0.648349L0.690819 1.91945L1.52739 2.71407L2.73474 1.44296L1.89816 0.648349ZM5.33885 5.04278C4.92056 4.64547 4.91949 4.6466 4.91949 4.6466L4.91841 4.64775L4.91618 4.65014C4.91466 4.65177 4.91309 4.65347 4.91148 4.65525C4.90826 4.6588 4.90483 4.66263 4.90123 4.66677C4.89404 4.67505 4.88613 4.68451 4.87768 4.69519C4.86077 4.71656 4.84164 4.74282 4.82157 4.77418C4.78134 4.83707 4.73769 4.91989 4.70073 5.02375C4.62558 5.23495 4.58463 5.51463 4.6358 5.86393C4.73635 6.55013 5.18599 7.47295 6.36084 8.70983L7.1974 7.91524C6.09926 6.75905 5.82876 6.047 5.77742 5.69662C5.75265 5.52763 5.77782 5.43856 5.78777 5.41056C5.79337 5.39486 5.79703 5.39048 5.79344 5.39609C5.79171 5.39879 5.78825 5.40386 5.78243 5.41125C5.77952 5.41486 5.77602 5.41917 5.77184 5.42394C5.76974 5.4264 5.76747 5.42894 5.76503 5.43163L5.76123 5.43571L5.75922 5.43786L5.75819 5.43902C5.75819 5.43902 5.75714 5.44009 5.33885 5.04278ZM6.36084 8.70983C7.53224 9.9431 8.4169 10.4279 9.09188 10.5375C9.43825 10.5938 9.71863 10.5489 9.93093 10.4652C10.0347 10.4242 10.1168 10.3762 10.1784 10.3325C10.2091 10.3106 10.2348 10.2899 10.2554 10.2719C10.2658 10.2628 10.2748 10.2543 10.2828 10.2466C10.2868 10.2429 10.2905 10.2392 10.2938 10.2358C10.2955 10.2341 10.2971 10.2324 10.2987 10.2308L10.301 10.2285L10.3021 10.2273C10.3021 10.2273 10.3031 10.2262 9.88485 9.82887C9.46656 9.43158 9.46764 9.4305 9.46764 9.4305L9.46864 9.42935L9.47071 9.42727L9.47464 9.42319C9.47725 9.42066 9.47971 9.4182 9.48202 9.41597C9.48663 9.4115 9.49086 9.40766 9.49456 9.40443C9.50186 9.39797 9.50733 9.39381 9.51087 9.39135C9.5181 9.3862 9.51733 9.38797 9.50756 9.39181C9.49271 9.39766 9.42279 9.42235 9.27687 9.39866C8.96719 9.34835 8.29906 9.07505 7.1974 7.91524L6.36084 8.70983ZM5.18112 0.944109C4.40146 -0.15861 2.84135 -0.34465 1.89816 0.648349L2.73474 1.44296C3.13691 1.01955 3.84491 1.05281 4.23901 1.61022L5.18112 0.944109ZM1.15523 3.59718C1.13874 3.29004 1.27248 2.98243 1.52739 2.71407L0.690819 1.91945C0.278641 2.3534 -0.0346411 2.95622 0.00308072 3.65902L1.15523 3.59718ZM12.4668 13.4521C12.2522 13.6781 12.0276 13.7991 11.8093 13.8207L11.9226 14.9689C12.4973 14.9122 12.9624 14.6057 13.3034 14.2467L12.4668 13.4521ZM5.97776 5.20779C6.72203 4.42424 6.77472 3.198 6.15108 2.31598L5.20897 2.98208C5.53368 3.44135 5.48389 4.05239 5.14118 4.4132L5.97776 5.20779ZM13.2759 10.5479C13.9073 10.9114 14.0309 11.8054 13.5595 12.3016L14.3961 13.0962C15.3998 12.0394 15.1075 10.2709 13.8515 9.54796L13.2759 10.5479ZM10.6535 9.85734C10.95 9.54519 11.412 9.47504 11.8063 9.70203L12.3819 8.70206C11.537 8.2157 10.489 8.35515 9.81693 9.06275L10.6535 9.85734Z" fill="white"/>
</svg>
