<svg width="1440" height="960" viewBox="0 0 1440 960" fill="none" xmlns="http://www.w3.org/2000/svg">
<mask id="mask0_2203_25808" style="mask-type:luminance" maskUnits="userSpaceOnUse" x="0" y="0" width="1440" height="960">
<path d="M1440 0H0V960H1440V0Z" fill="white"/>
</mask>
<g mask="url(#mask0_2203_25808)">
<path d="M447.339 403.028C449.009 402.951 450.679 402.874 452.311 402.721C466.539 401.242 481.995 402.318 495.819 399.015C508.663 395.943 518.455 386.669 531.857 384.442C541.188 382.887 554.743 381.351 562.615 375.994C565.86 373.786 568.51 368.583 572.945 368.775C576.055 368.91 577.611 372.654 579.819 374.497C585.348 379.105 588.19 376.82 593.143 373.882C596.945 371.636 596.638 373.537 599.441 373.978C600.881 374.209 603.569 373.921 604.875 374.305C608.369 375.322 609.118 379.681 611.71 381.869C613.015 382.983 614.743 382.637 615.915 384.385C617.566 386.861 615.55 388.109 618.065 390.317C622.961 394.599 626.263 387.092 631.735 387.764C632.964 387.918 635.268 389.319 635.902 389.377C638.494 389.646 640.683 389.012 643.255 387.841C647.575 385.863 651.684 384.73 656.561 383.559C664.721 381.62 668.542 375.284 675.857 372.442C679.467 371.041 684.612 368.737 687.895 371.905C689.431 373.383 689.739 375.034 691.121 376.359C691.908 377.127 693.579 377.646 694.577 378.663C696.977 381.082 694.078 382.081 698.858 382.157C701.412 382.196 702.161 381.255 704.138 380.43C707.23 383.981 711.051 387.13 716.196 385.997C718.155 385.575 719.211 383.809 721.38 383.751C725.393 383.617 726.91 387.687 729.598 389.837C734.206 393.543 740.926 394.983 746.34 397.422C750.027 399.092 753.713 399.687 756.132 403.124C757.572 405.159 757.707 407.809 759.78 409.498C760.798 410.324 762.986 410.458 763.774 411.226C764.753 412.205 765.425 415.181 766.462 416.545C767.767 418.253 770.225 421.114 772.26 421.978C773.7 422.593 776.004 421.71 777.233 422.65C779.614 424.494 779.287 428.929 781.361 431.137C784.356 434.343 787.006 432.922 790.615 433.786C793.745 434.516 794.57 435.053 796.798 437.569C800.369 441.601 800.983 443.694 805.975 445.959C810.948 448.225 813.924 449.569 817.438 453.601C821.585 458.362 822.718 456.193 827.479 453.562C832.03 451.047 836.58 452.142 840.958 449.857C847.543 446.42 847.812 439.758 856.318 439.604C873.041 439.316 882.276 423.898 898.174 420.846C905.796 419.386 908.33 421.037 913.802 414.26C915.684 411.937 920.388 405.965 923.595 405.351C926.379 404.813 926.571 405.773 928.74 406.733C931.735 402.721 938.34 402.106 942.756 401.262C948.727 400.11 951.953 394.561 957.905 392.525C960.286 391.719 962.283 392.122 964.721 391.585C968.734 390.682 971.652 386.612 975.415 384.999C977.931 383.924 980.58 383.981 982.961 383.098C986.782 381.677 990.199 378.74 993.06 375.86C996.036 372.865 1000.01 368.237 1004.23 366.989C1007.36 366.049 1007.92 366.644 1010.38 364.82C1012.13 363.533 1013.35 361.402 1015.56 360.846C1018.17 360.174 1019.5 360.654 1021.9 359.502C1023.43 358.772 1025.57 357.409 1027.08 357.447C1028.39 357.447 1030.48 358.906 1031.98 359.117C1033.19 359.29 1034.59 359.041 1035.82 359.041C1037.87 359.041 1041.48 359.828 1043.33 358.964C1045.46 357.966 1047.59 353.607 1048.82 351.553C1049.37 352.09 1051.2 352.57 1051.72 353.05C1051.68 351.188 1057.07 343.834 1058.63 343.873C1059.66 343.738 1060.2 344.333 1060.26 345.677C1061.22 346.983 1062.37 347.118 1063.72 346.081C1065.48 346.657 1065.31 346.618 1067.02 348.02C1070.13 350.573 1070.86 351.687 1075.18 351.418C1079.88 351.13 1083.97 347.271 1088.66 347.386C1091.73 347.463 1093.76 348.174 1097.07 347.77C1098.99 347.54 1100.96 347.713 1102.83 347.386C1105.3 346.945 1109.93 343.585 1113.1 345.85C1116.34 348.174 1112.73 352.205 1119.15 350.842C1125.31 349.537 1123.97 343.758 1130.8 347.828C1136.85 351.418 1137.56 350.305 1143.86 349.729C1149.87 349.191 1152.78 354.164 1157.82 356.391C1163.4 358.868 1167.47 356.852 1173.06 357.447C1177.21 357.889 1180.34 362.247 1184.22 362.228C1187.21 362.209 1193.51 358.868 1196.04 357.313C1203.45 352.724 1207.02 341.972 1215.49 339.61C1218.64 338.727 1220.08 338.65 1223.15 336.308C1228.89 331.911 1234.77 327.975 1241.1 324.519C1243.74 323.079 1245.02 322.561 1247.04 320.276C1250.9 315.879 1253.87 309.101 1260.09 307.316C1263.59 306.317 1266.22 308.237 1269.83 306.471C1275.78 303.572 1281.58 292.474 1286.21 287.924C1290.97 283.239 1290.24 284.372 1295.56 284.66C1299.07 284.852 1300.74 284.967 1303.35 281.876C1306.06 278.65 1309.59 271.566 1315.31 272.737C1315.97 273.812 1316.91 277.134 1317.83 277.748C1320.17 279.284 1324.01 276.942 1326.66 277.748C1330.17 278.842 1331.84 282.452 1334.47 284.909C1338.45 288.653 1342.81 290.439 1347.8 292.455C1355.15 295.431 1363.06 296.372 1370.3 299.617C1375.08 301.767 1374.54 300.922 1378.71 300.385C1381.67 300.001 1381.86 301.287 1384.49 301.709C1388.6 302.362 1390.33 302.055 1394.11 299.54C1398.81 296.429 1403.13 290.919 1408.43 288.807C1411.1 287.981 1413.71 288.058 1416.29 289.018C1419.11 290.151 1421.95 289.997 1424.81 288.538C1436.06 286.061 1446.12 278.17 1455.53 271.757C1463.98 265.709 1472.75 260.218 1481.91 255.284C1485.77 254.247 1489.61 253.191 1493.47 252.154C1499.73 254.093 1501.51 261.524 1503.7 266.708C1509.71 280.897 1516.41 294.682 1521.67 309.197C1529.68 331.354 1533.41 354.241 1536.04 377.607C1539.4 407.425 1541.49 437.319 1542.93 467.29C1544.5 488.794 1544.52 510.318 1542.97 531.86C1539.55 545.838 1536.15 559.834 1532.73 573.812C1523.75 586.983 1514.78 600.154 1505.8 613.306C1490.94 623.233 1476.06 633.159 1461.19 643.086C1441.65 648.788 1422.08 654.509 1402.54 660.212C1365.75 666.279 1328.77 670.426 1291.58 672.692C1228.43 677.703 1165.46 679.527 1102.14 678.414C1035.32 677.223 968.657 673.21 901.879 670.753C827.019 667.988 751.946 669.044 677.143 664.781C652.759 662.861 628.375 660.941 603.991 659.021C582.027 655.181 560.081 651.322 538.116 647.482C520.126 641.473 502.135 635.463 484.145 629.453C464.734 623.098 448.971 612.173 436.836 596.698C428.177 590.228 422.743 581.722 420.535 571.22C415.332 562.657 413.489 553.441 415.006 543.553C414.775 525.85 418.385 509.204 420.996 491.732C423.761 473.204 423.914 454.561 428.042 436.244C429.943 427.834 431.825 419.213 433.918 410.9C435.665 403.988 441.348 403.393 447.319 403.086L447.339 403.028Z" fill="url(#paint0_linear_2203_25808)"/>
</g>
<defs>
<linearGradient id="paint0_linear_2203_25808" x1="979.313" y1="672.001" x2="979.313" y2="146.382" gradientUnits="userSpaceOnUse">
<stop stop-color="#C65060"/>
<stop offset="1" stop-color="#0D244D"/>
</linearGradient>
</defs>
</svg>
