<svg width="1440" height="960" viewBox="0 0 1440 960" fill="none" xmlns="http://www.w3.org/2000/svg">
<mask id="mask0_2203_25816" style="mask-type:luminance" maskUnits="userSpaceOnUse" x="0" y="0" width="1440" height="960">
<path d="M1440 0H0V960H1440V0Z" fill="white"/>
</mask>
<g mask="url(#mask0_2203_25816)">
<path d="M-11.5169 278.4C-6.98575 279.897 -7.90735 273.734 -3.93295 272.544C0.63665 271.18 3.30546 274.214 7.14545 270.297C8.89265 268.531 8.37426 267.129 11.4655 267.148C14.1535 267.168 13.9615 268.953 16.8415 268.396C21.0655 267.59 21.0079 263.539 25.4815 266.361C27.8623 267.859 29.6287 270.816 31.8943 272.428C35.2927 274.828 38.4031 275.692 39.8815 280.281C40.8991 283.392 39.7087 285.523 43.0303 287.04C45.7951 288.326 48.9823 284.448 52.0159 286.329C54.2047 287.673 53.6287 290.265 55.1455 291.993C56.8543 293.971 58.2559 293.491 60.4639 294.796C64.1887 297.004 63.3823 300.403 65.6863 303.072C67.5295 305.203 68.1439 305.088 71.0239 305.779C76.4767 307.084 77.6671 304.819 82.4863 301.958C85.8463 299.98 89.6863 298.348 92.6431 296.198C93.9871 295.219 94.8895 292.972 96.3487 292.224C98.1535 291.264 100.035 292.473 101.821 291.936C105.507 290.822 106.928 286.828 111.325 285.984C114.953 285.273 119.312 286.156 122.883 286.54C126.896 286.982 124.496 287.193 127.971 286.08C131.293 285.004 133.385 282.912 136.419 285.792C138.704 287.961 137.744 291.724 139.587 293.99C141.373 296.179 142.755 295.641 145.558 295.91C147.113 302.323 148.918 305.644 153.622 309.58C157.289 312.652 159.094 316.608 161.667 320.582C164.585 325.056 166.64 329.126 168.829 334.022C171.094 339.072 172.63 340.8 177.027 343.622C179.907 345.465 182.173 347.097 184.323 349.824C189.507 356.371 192.368 363.59 198.493 369.542C204.694 375.571 208.707 368.083 215.446 366.969C223.184 365.683 221.149 374.707 226.986 375.974C229.846 376.588 235.049 371.481 234.512 377.913C236.912 378.643 239.158 377.875 241.577 378.528C241.769 380.294 241.961 381.964 242.154 383.712C245.187 384.46 248.586 383.136 251.523 383.865C255.555 384.864 257.322 389.299 262.026 389.856C265.904 390.297 270.665 390.144 274.563 389.856C279.382 389.491 283.299 386.572 288.003 385.862C291.613 385.305 293.993 386.227 297.507 384.595C301.405 382.809 304.861 378.835 309.123 378.124C310.813 377.856 313.328 378.95 314.941 378.412C316.669 377.817 316.477 376.339 317.897 375.532C322.659 372.902 322.352 376.185 324.733 379.987C330.377 380.121 334.198 375.225 339.882 377.376C343.568 378.758 345.219 382.675 348.368 383.923C355.318 386.688 367.069 380.486 371.926 375.955C379.99 368.409 388.841 363.648 399.248 360.038C403.664 358.502 410.902 353.971 415.587 355.219C420.752 356.601 421.347 361.689 427.606 359.289C432.522 357.408 435.632 353.068 441.085 351.801C443.619 351.206 445.04 351.456 447.267 350.227C450.493 348.48 452.163 344.678 454.621 342.048C460.611 335.654 470.864 331.392 478.832 328.32C482.595 326.86 485.878 327.36 489.469 326.169C495.248 324.249 499.683 317.376 505.443 314.707C510.032 312.595 515.312 313.036 519.843 310.675C523.894 308.563 526.429 304.531 530.403 302.15C534.09 306.604 535.318 313.248 535.645 318.758C535.99 324.499 536.259 324.019 539.542 328.358C541.674 331.18 543.21 333.676 545.59 336.384C549.699 341.049 553.194 345.696 558.55 349.056C565.194 353.241 571.856 355.315 577.462 361.209C584.605 368.716 587.85 379.699 596.394 385.92C603.594 391.161 613.059 390.201 618.896 397.324C622.39 401.587 623.811 406.329 628.189 409.574C632.605 412.838 636.157 413.51 639.382 418.56C642.627 423.628 646.083 427.296 650.384 431.616C654.57 435.82 659.6 438.873 662.902 443.884C666.109 448.78 668.432 456.23 674.307 458.707C677.955 460.243 681.718 459.014 685.443 461.26C687.747 462.662 690.185 465.83 692.989 466.348C697.04 467.078 698.826 462.451 702.397 462.892C702.8 464.889 702.819 466.233 704.029 467.808C709.789 463.104 709.923 469.593 712.611 472.492C715.146 475.257 717.68 473.625 720.925 474.278C726.512 475.392 727.491 481.382 731.408 484.819C737.59 490.252 746.864 486.873 751.626 493.382C753.872 496.454 755.677 499.756 759.69 500.908C763.914 502.137 767.926 498.777 771.882 500.908C774.915 502.56 776.182 507.052 780.195 507.705C783.344 508.224 785.802 505.401 789.123 504.844C795.133 503.865 800.336 506.707 804.426 510.7C809.341 515.481 813.814 520.089 819.306 524.179C826.16 529.286 830.461 535.315 839.139 530.611C842.768 528.652 846.512 523.545 850.64 522.47C854.211 521.548 854.403 524.563 857.149 524.908C860.797 525.388 862.602 521.51 866.384 521.049C868.861 520.742 872.739 522.028 875.446 522.22C883.088 522.777 881.418 529.632 887.139 533.894C892.342 537.772 899.869 538.176 905.437 541.689C918.781 550.08 928.65 562.963 940.611 573.062C953.955 584.332 970.794 588.825 984.906 598.771C995.197 606.028 1007.54 617.779 1008.1 630.969C1008.75 646.464 1001.57 656.62 989.898 666.72C959.062 693.369 922.352 714.067 883.069 725.03C829.693 739.948 774.819 746.4 719.542 747.859C647.734 749.76 576.33 749.702 504.617 755.04C445.482 759.436 387.094 763.603 327.766 760.531C252.214 756.614 180.233 736.569 107.561 717.312C89.8591 712.473 72.1566 707.654 54.4734 702.816C36.1758 695.884 17.8783 688.953 -0.41935 682.022C-13.0722 673.939 -25.7441 665.856 -38.3969 657.772C-44.0993 649.728 -49.8209 641.702 -55.5233 633.657C-64.8353 616.55 -65.1809 589.344 -65.8337 570.009C-66.7553 542.899 -64.5665 515.654 -61.6097 488.755C-58.3841 459.436 -55.5425 430.348 -51.0497 401.184C-48.6113 385.363 -47.1905 369.081 -46.3649 353.088C-45.4433 334.982 -44.1762 317.26 -36.573 300.576C-31.389 289.228 -18.3713 287.577 -11.5937 278.419L-11.5169 278.4Z" fill="url(#paint0_linear_2203_25816)"/>
</g>
<defs>
<linearGradient id="paint0_linear_2203_25816" x1="471.113" y1="274.56" x2="471.113" y2="606.72" gradientUnits="userSpaceOnUse">
<stop stop-color="#041C40"/>
<stop offset="1" stop-color="#613E5E"/>
</linearGradient>
</defs>
</svg>
