<svg width="1440" height="960" viewBox="0 0 1440 960" fill="none" xmlns="http://www.w3.org/2000/svg">
<mask id="mask0_2203_25800" style="mask-type:luminance" maskUnits="userSpaceOnUse" x="0" y="0" width="1440" height="960">
<path d="M1440 0H0V960H1440V0Z" fill="white"/>
</mask>
<g mask="url(#mask0_2203_25800)">
<path d="M1443.84 257.684C1443.01 257.684 1442.24 257.876 1441.44 257.204C1439.21 258.74 1439.4 263.309 1436.18 263.847C1434.58 264.116 1433.05 262.791 1431.15 263.213C1427.9 263.943 1424.5 267.668 1421.55 269.242C1419.9 270.125 1418.51 270.087 1416.98 270.663C1415.04 271.373 1414.6 272.007 1412.93 273.543C1410.47 275.809 1406.9 278.477 1403.79 279.802C1400.37 281.242 1400.89 279.879 1397.76 279.553C1392.15 278.957 1389.64 289.575 1383.68 288.788C1381.78 288.538 1380.59 286.676 1378.71 286.215C1374.14 285.063 1369.63 288.769 1366.02 290.919C1364 292.109 1359.3 295.757 1356.71 294.951C1354.46 294.241 1354.5 291.341 1351.77 291.322C1349.05 291.303 1345.51 295.988 1343.61 297.447C1340.12 300.135 1341.19 298.023 1338.28 297.082C1331.56 294.913 1326.49 301.191 1319.9 301.306C1316.96 301.345 1315.12 299.885 1312.07 300.404C1308.9 300.941 1305.85 302.631 1302.74 303.149C1296.75 304.129 1291.6 301.479 1286.42 298.887C1282.88 297.121 1279.81 294.97 1276.43 293.012C1273.57 291.341 1272.48 292.801 1269.75 292.301C1266.89 291.783 1266.93 289.172 1265.64 287.309C1264.05 285.005 1263.24 285.178 1260.78 284.813C1257.85 284.372 1256.18 282.164 1253.2 281.223C1251.03 280.551 1248.86 281.396 1246.71 280.724C1244.6 280.071 1244.06 278.804 1241.68 279.226C1238.49 279.802 1237.53 284.18 1235.15 284.717C1233.35 285.121 1233.08 284.391 1231.75 283.661C1230.79 285.773 1228.53 286.983 1227.01 288.653C1225.67 290.151 1224.71 291.841 1223.06 293.05C1221.75 294.01 1220.12 294.356 1218.83 295.373C1218.18 295.892 1217.76 296.986 1217.05 297.351C1213.65 299.117 1212.17 295.028 1208.46 297.677C1204.99 300.154 1198.21 310.138 1193.58 306.029C1192.05 304.666 1191.51 302.9 1189.19 302.823C1186.44 302.727 1184.31 305.684 1181.66 306.375C1180.43 306.682 1178.7 307.047 1177.53 306.337C1176.38 305.626 1176.52 304.397 1175.17 303.898C1173.75 303.38 1171.39 304.321 1169.85 304.052C1168.39 303.802 1167.59 302.938 1166.36 302.362C1162.81 300.692 1164.4 303.572 1161.23 303.841C1161.23 299.636 1153.63 301.997 1150.71 300.538C1147.95 299.156 1147.2 297.697 1144.03 297.562C1142.74 297.505 1141.07 298.042 1139.88 297.505C1139.11 297.159 1138.98 296.353 1138.27 295.969C1137.64 295.642 1137.5 294.97 1136.64 294.913C1135.31 294.817 1135.43 296.487 1134.12 296.487C1131.82 296.487 1132.01 293.626 1130.3 293.165C1128.13 292.57 1125.85 295.7 1124.48 297.025C1121.68 299.713 1122.1 298.484 1119.76 296.775C1118.32 297.639 1117.34 299.041 1116.17 300.193C1115.44 301.114 1114.58 301.921 1113.62 302.593C1112.85 302.746 1112.22 302.593 1111.7 302.055C1111.18 301.556 1110.54 301.364 1109.82 301.479C1109.07 302.247 1108.39 303.053 1107.76 303.898C1106.13 305.665 1104.32 307.757 1102.02 308.679C1096.36 302.324 1094.01 311.021 1087.49 310.234C1084.49 309.869 1084.82 305.453 1082.36 305.319C1078.9 305.127 1077.64 312.058 1073.87 311.828C1072.86 311.77 1072.82 310.637 1071.82 310.541C1070.17 310.388 1068.38 312.193 1066.96 312.941C1062.87 315.13 1060.09 315.053 1055.77 315.399C1050.85 315.802 1047.93 319.815 1043.31 320.583C1040.43 321.063 1039.58 319.162 1037.05 319.124C1036.28 315.879 1036.91 314.093 1033.4 312.596C1031.21 311.655 1029.67 312.02 1027.87 310.273C1025.72 308.199 1024.91 304.762 1022.51 302.823C1018.02 299.175 1011.55 303.361 1006.79 300.692C1004.16 299.233 1003.54 295.949 1000.87 294.509C998.513 293.242 996.343 294.413 993.982 293.703C990.948 292.781 991.236 289.21 988.222 288.538C987.127 288.308 985.63 289.21 984.612 288.442C983.614 287.713 983.71 285.889 982.788 285.005C982.289 284.525 980.83 284.429 980.158 283.892C979.198 283.124 978.891 281.914 978.276 280.916C976.759 278.42 977.22 277.575 976.49 274.676C975.031 274.733 974.494 275.981 973.015 275.597C972.555 273.159 973.265 270.682 972.785 268.282C972.286 265.863 972.094 266.17 970.116 265.537C968.023 264.865 966.199 265.825 963.991 264.308C961.975 262.925 960.842 260.737 958.788 259.373C957.233 258.356 955.37 258.394 953.815 257.588C952.203 256.762 951.684 255.802 950.417 254.65C948.938 253.287 946.385 251.386 944.638 253.575C944.004 252.097 943.466 250.637 942.526 249.332C941.278 250.388 940.145 251.482 938.417 251.425C937.591 249.466 938.724 247.277 938.167 245.223C933.847 249.082 932.542 255.783 926.475 257.607C924.401 258.221 922.75 258.375 920.657 259.354C915.339 261.869 911.249 266.842 905.566 268.609C899.979 270.337 894.372 267.975 889.687 272.372C887.287 274.618 884.33 281.012 880.778 281.05C878.916 281.069 878.321 278.823 876.842 278.017C872.388 279.418 872.388 287.29 867.761 289.018C866.436 288.193 865.668 286.273 864.151 285.793C862.097 285.159 859.716 287.482 858.43 288.653C856.683 290.266 855.089 293.492 852.439 293.78C849.924 294.049 848.983 291.649 847.447 290.189C843.857 291.169 841.246 295.22 838.423 297.351C835.793 299.348 833.335 299.981 830.11 300.097C820.529 300.461 818.033 312.749 809.585 314.285C807.012 314.765 806.398 314.305 804.171 316.378C804.439 316.129 801.751 319.258 801.233 319.22C799.774 319.124 801.195 319.047 799.755 318.125C795.915 315.629 794.052 310.292 788.196 311.789C787.14 312.058 785.527 314.113 784.625 314.132C783.3 314.17 783.723 313.402 782.686 312.845C780.939 311.885 780.075 309.025 778.251 307.738C776.657 306.625 775.198 305.703 773.124 305.588C768.919 305.377 765.636 308.141 761.911 305.069C758.993 302.689 757.802 298.484 753.367 298.522C749.489 298.541 746.225 304.109 742.346 302.381C740.619 301.613 739.371 298.676 738.411 297.447C737.047 295.738 735.934 295.143 733.975 294.356C729.156 292.455 725.124 295.681 720.516 294.817C717.195 294.202 714.199 291.188 711.166 289.767C709.668 289.076 707.978 288.461 706.558 287.597C705.482 286.945 703.774 284.564 702.718 284.698C700.625 284.948 701.431 290.842 701.47 292.263C701.566 296.045 701.508 297.524 698.667 300.058C693.636 304.532 686.609 312.692 679.159 310.733C675.454 309.754 674.148 308.103 670.519 310.772C668.388 312.346 666.794 314.842 663.991 315.437C661.419 315.975 659.115 314.266 656.619 314.247C651.377 314.247 646.865 318.241 642.238 320.353C636.9 322.791 631.831 322.426 626.282 323.329C621.905 324.039 617.393 325.921 613.764 328.321C609.003 331.469 604.702 335.329 598.788 335.962C593.623 336.519 589.841 337.767 584.926 339.783C581.297 341.281 578.359 342.74 574.423 342.029C570.603 341.338 569.508 340.013 566.129 342.567C563.172 344.794 562.558 345.505 559.14 343.623C557.662 342.817 556.913 341.357 555.07 341.012C551.844 340.397 548.906 343.239 546.507 344.909C544.913 346.004 542.091 348.097 540.075 348.25C535.985 348.577 534.852 345.351 532.375 343.009C526.596 337.575 524.139 341.031 517.419 342.221C511.639 343.258 509.93 336.769 505.227 334.945C502.097 333.735 498.238 334.753 495.012 334.772C489.463 334.81 488.1 333.313 484.299 330.164C481.86 328.167 479.998 325.997 476.849 325.037C473.451 324.001 470.628 324.692 467.115 324.481C461.873 324.173 455.787 317.185 451.313 313.901C447.3 310.964 442.001 307.124 439.082 303.111C435.838 298.657 436.337 291.649 429.444 293.012C426.564 293.569 426.641 293.549 425.047 290.919C423.646 288.596 422.897 285.697 421.265 283.565C417.79 279.053 411.684 281.876 407.038 279.687C403.812 278.17 402.276 275.809 400.106 273.159C397.553 270.049 395.019 268.589 391.678 266.42C387.223 263.521 384.42 260.525 381.502 256.186C380.388 254.516 379.274 252.596 377.662 251.309C376.049 250.042 374.359 249.773 373.457 247.719C371.594 248.66 369.598 248.909 367.466 249.754C363.012 251.521 359.575 255.188 354.564 255.399C349.13 255.629 345.194 251.194 339.569 251.252C334.385 251.309 329.642 256.685 324.785 252.557C322.884 250.925 322.097 247.143 319.831 246.01C317.066 244.647 314.82 246.106 312.439 247.469C306.833 250.695 302.071 253.153 295.735 250.196C289.15 247.124 286.001 247.066 279.281 250.215C273.674 252.845 273.924 248.333 270.161 244.916C266.417 241.537 263.863 245.185 259.582 243.649C253.514 241.46 253.745 232.397 247.486 229.594C236.753 224.775 230.474 213.677 220.202 207.86C215.652 205.287 212.599 199.162 207.146 198.797C199.735 198.298 196.414 197.434 191.729 191.175C189.098 187.661 186.929 186.356 182.762 186.125C180.151 185.972 180.65 186.298 178.961 184.973C176.887 183.361 176.292 179.924 174.257 178.33C170.858 175.661 165.463 176.257 161.681 174.433C156.804 172.071 153.386 167.002 148.644 164.333C145.898 162.797 141.579 160.628 138.315 162.029C134.244 163.777 133.975 168.673 128.407 166.733C126.43 166.042 125.662 164.122 123.281 164.218C121.188 164.295 119.633 166.157 117.847 167.041C114.142 168.865 111.07 169.133 107.268 168.538C102.986 167.885 99.6265 169.882 96.0361 172.378C92.6761 174.721 87.7417 180.327 83.2489 179.809C80.8681 179.54 81.8473 180.135 80.3689 178.292C79.3321 176.986 79.4281 174.778 78.2569 173.319C74.8969 169.095 72.4969 172.551 68.3113 172.244C63.2041 171.86 61.1881 166.676 57.1177 164.333C51.1273 160.877 44.5417 161.05 38.4937 158.074C32.4265 155.098 27.8377 149.069 23.4409 144.001C17.8153 137.492 12.4585 130.637 8.11929 123.207C4.79769 117.524 1.9561 112.532 -2.4599 107.578C-4.9751 104.775 -8.66151 99.7637 -12.7895 99.0341C-16.2455 98.4197 -18.4343 101.108 -20.3543 103.546C-26.8823 111.821 -30.5495 124.013 -33.7943 133.805C-39.9191 152.257 -43.0103 171.86 -46.2935 190.945C-52.2839 225.812 -57.6983 260.717 -64.0343 295.527C-66.7031 310.177 -69.2759 324.884 -71.2151 339.649C-73.8455 359.597 -75.9191 381.293 -71.3687 401.165C-68.7959 412.397 -63.7847 423.361 -55.7015 431.751C-43.6823 444.212 -24.6935 448.993 -8.45029 452.66C11.4793 457.153 31.8121 458.209 52.1065 459.668C95.4985 462.759 137.988 468.385 180.727 476.621C217.207 483.668 253.399 491.021 290.302 495.61C331.524 500.737 372.977 502.599 414.372 505.729C457.898 509.012 501.156 513.965 544.491 519.015C599.134 525.37 653.796 530.88 708.593 535.719C748.644 539.271 788.618 542.458 828.842 543.245C875.23 544.148 921.578 542.151 967.966 541.921C996.843 541.767 1025.66 542.477 1054.52 543.034C1083.28 543.591 1111.85 542.573 1140.59 542.017C1142.07 539.962 1140 540.442 1141.86 540.884C1148.75 542.535 1156.3 542.938 1163.33 543.265C1187.15 544.397 1210.98 539.444 1234.58 536.813C1265.6 533.377 1297.03 531.495 1328.25 530.669C1360.51 529.825 1393.15 532.436 1425.25 528.481C1437.79 526.925 1451.08 524.525 1461.62 517.095C1465.98 514.023 1470.93 509.722 1472.2 504.308C1473.5 498.701 1474.42 492.749 1474.69 486.989C1474.94 481.383 1476.13 475.757 1476.07 470.17C1475.98 460.685 1472.73 451.546 1470.85 442.349C1468.05 428.641 1465.03 415.22 1463.44 401.3C1461.54 384.865 1461.31 369.255 1456.74 353.223C1450.02 329.645 1453.88 304.973 1452.98 280.801C1452.8 276.116 1451.1 271.009 1449.71 266.573C1448.93 264.058 1448.12 260.948 1446.45 258.836C1445.55 257.703 1444.74 257.569 1443.95 257.588L1443.84 257.684Z" fill="url(#paint0_linear_2203_25800)"/>
</g>
<defs>
<linearGradient id="paint0_linear_2203_25800" x1="700.894" y1="690.394" x2="700.894" y2="-85.1898" gradientUnits="userSpaceOnUse">
<stop stop-color="#C65060"/>
<stop offset="1" stop-color="#0D244D"/>
</linearGradient>
</defs>
</svg>
